{"glyphs":{"0":{"ha":967,"x_min":0,"x_max":0,"o":"m 485 -25 b 910 504 746 -25 910 179 b 485 1032 910 829 746 1032 b 57 504 222 1032 57 829 b 485 -25 57 179 222 -25 z m 485 169 b 296 504 365 169 296 293 b 485 838 296 715 365 838 b 671 504 603 838 671 715 b 485 169 671 293 603 169 z "},"1":{"ha":646,"x_min":0,"x_max":0,"o":"m 38 797 l 38 563 l 311 746 l 311 0 l 544 0 l 544 1007 l 335 1007 z "},"2":{"ha":842,"x_min":0,"x_max":0,"o":"m 499 268 b 786 708 663 413 786 536 b 415 1032 786 907 628 1032 b 38 697 189 1032 57 901 l 253 697 b 415 840 271 788 331 840 b 557 704 513 840 557 776 b 340 411 557 610 460 515 l 47 150 l 47 0 l 790 0 l 790 178 l 396 178 z "},"3":{"ha":851,"x_min":0,"x_max":0,"o":"m 790 856 l 790 1007 l 49 1007 l 49 829 l 494 829 l 226 560 l 311 429 b 404 440 336 436 374 440 b 575 303 513 440 575 381 b 422 169 575 224 515 169 b 243 299 338 169 269 215 l 19 299 b 428 -24 53 94 199 -24 b 807 299 661 -24 807 114 b 524 592 807 454 701 568 z "},"4":{"ha":931,"x_min":0,"x_max":0,"o":"m 740 347 l 740 1007 l 539 1007 l 38 325 l 38 169 l 529 169 l 529 0 l 740 0 l 740 169 l 893 169 l 893 347 z m 529 686 l 529 347 l 282 347 z "},"5":{"ha":893,"x_min":0,"x_max":0,"o":"m 482 676 b 301 638 411 676 351 664 l 331 829 l 803 829 l 803 1007 l 153 1007 l 74 472 l 249 410 b 438 488 292 458 357 488 b 617 328 554 488 617 421 b 447 172 617 233 553 172 b 261 288 354 172 283 218 l 32 288 b 446 -19 81 74 246 -19 b 849 333 682 -19 849 113 b 482 676 849 540 706 676 z "},"6":{"ha":929,"x_min":0,"x_max":0,"o":"m 514 679 b 276 596 417 679 335 649 b 494 849 294 758 368 849 b 650 754 568 849 619 815 l 864 754 b 496 1032 817 928 696 1032 b 57 489 215 1032 57 821 b 486 -25 57 164 214 -25 b 886 326 717 -25 886 114 b 514 679 886 543 718 679 z m 483 158 b 304 332 372 158 304 231 b 483 504 304 435 375 504 b 661 332 590 504 661 433 b 483 158 661 232 592 158 z "},"7":{"ha":825,"x_min":0,"x_max":0,"o":"m 38 829 l 532 829 l 122 0 l 372 0 l 788 856 l 788 1007 l 38 1007 z "},"8":{"ha":939,"x_min":0,"x_max":0,"o":"m 707 525 b 851 753 799 572 851 651 b 469 1032 851 924 701 1032 b 88 753 238 1032 88 924 b 232 525 88 651 140 572 b 51 276 114 479 51 394 b 469 -24 51 86 204 -24 b 888 276 733 -24 888 86 b 707 525 888 394 825 479 z m 469 860 b 646 733 579 860 646 810 b 469 601 646 653 578 601 b 293 733 363 601 293 651 b 469 860 293 810 358 860 z m 469 149 b 283 289 354 149 283 203 b 469 433 283 378 354 433 b 656 289 583 433 656 378 b 469 149 656 203 583 149 z "},"9":{"ha":929,"x_min":0,"x_max":0,"o":"m 443 1032 b 43 681 213 1032 43 893 b 415 328 43 464 211 328 b 653 411 513 328 594 358 b 435 158 635 249 561 158 b 279 253 361 158 310 192 l 65 253 b 433 -25 113 79 233 -25 b 872 518 714 -25 872 186 b 443 1032 872 843 715 1032 z m 446 503 b 268 675 339 503 268 574 b 446 849 268 775 336 849 b 625 675 557 849 625 776 b 446 503 625 572 554 503 z "}," ":{"ha":263,"x_min":0,"x_max":0,"o":""},"A":{"ha":1061,"x_min":0,"x_max":0,"o":"m 1050 0 l 644 1007 l 417 1007 l 11 0 l 244 0 l 326 214 l 731 214 l 813 0 z m 526 742 l 656 408 l 400 408 z "},"Á":{"ha":1061,"x_min":0,"x_max":0,"o":"m 558 1331 l 425 1097 l 604 1097 l 822 1331 z m 1050 0 l 644 1007 l 417 1007 l 11 0 l 244 0 l 326 214 l 731 214 l 813 0 z m 526 742 l 656 408 l 400 408 z "},"Ă":{"ha":1061,"x_min":0,"x_max":0,"o":"m 528 1092 b 796 1324 699 1092 794 1172 l 618 1324 b 531 1232 615 1258 585 1232 b 440 1324 476 1232 443 1258 l 265 1324 b 528 1092 267 1172 376 1092 z m 1050 0 l 644 1007 l 417 1007 l 11 0 l 244 0 l 326 214 l 731 214 l 813 0 z m 526 742 l 656 408 l 400 408 z "},"Ǎ":{"ha":1061,"x_min":0,"x_max":0,"o":"m 822 1331 l 622 1331 l 531 1228 l 438 1331 l 238 1331 l 432 1097 l 629 1097 z m 1050 0 l 644 1007 l 417 1007 l 11 0 l 244 0 l 326 214 l 731 214 l 813 0 z m 526 742 l 656 408 l 400 408 z "},"Â":{"ha":1061,"x_min":0,"x_max":0,"o":"m 622 1097 l 822 1097 l 629 1331 l 432 1331 l 238 1097 l 438 1097 l 531 1199 z m 1050 0 l 644 1007 l 417 1007 l 11 0 l 244 0 l 326 214 l 731 214 l 813 0 z m 526 742 l 656 408 l 400 408 z "},"Ä":{"ha":1061,"x_min":0,"x_max":0,"o":"m 332 1093 b 450 1207 396 1093 450 1143 b 332 1322 450 1272 399 1322 b 214 1207 265 1322 214 1272 b 332 1093 214 1143 265 1093 z m 728 1093 b 844 1207 790 1093 844 1143 b 728 1322 844 1272 793 1322 b 608 1207 660 1322 608 1272 b 728 1093 608 1143 660 1093 z m 1050 0 l 644 1007 l 417 1007 l 11 0 l 244 0 l 326 214 l 731 214 l 813 0 z m 526 742 l 656 408 l 400 408 z "},"À":{"ha":1061,"x_min":0,"x_max":0,"o":"m 503 1331 l 239 1331 l 454 1097 l 632 1097 z m 1050 0 l 644 1007 l 417 1007 l 11 0 l 244 0 l 326 214 l 731 214 l 813 0 z m 526 742 l 656 408 l 400 408 z "},"Ā":{"ha":1061,"x_min":0,"x_max":0,"o":"m 268 1260 l 268 1104 l 792 1104 l 792 1260 z m 1050 0 l 644 1007 l 417 1007 l 11 0 l 244 0 l 326 214 l 731 214 l 813 0 z m 526 742 l 656 408 l 400 408 z "},"Ą":{"ha":1061,"x_min":0,"x_max":0,"o":"m 1050 0 l 644 1007 l 417 1007 l 11 0 l 244 0 l 326 214 l 731 214 l 811 3 b 719 -162 751 -46 719 -101 b 885 -292 719 -237 774 -292 b 979 -282 915 -292 949 -290 l 979 -165 l 961 -165 b 894 -121 919 -165 894 -151 b 979 0 894 -74 926 -29 z m 526 742 l 656 408 l 400 408 z "},"Å":{"ha":1061,"x_min":0,"x_max":0,"o":"m 531 1089 b 710 1263 636 1089 710 1161 b 531 1435 710 1363 636 1435 b 350 1263 425 1435 350 1363 b 531 1089 350 1161 425 1089 z m 531 1329 b 597 1263 571 1329 597 1301 b 531 1194 597 1222 571 1194 b 463 1263 492 1194 463 1222 b 531 1329 463 1301 492 1329 z m 1050 0 l 644 1007 l 417 1007 l 11 0 l 244 0 l 326 214 l 731 214 l 813 0 z m 526 742 l 656 408 l 400 408 z "},"Ã":{"ha":1061,"x_min":0,"x_max":0,"o":"m 446 1179 b 647 1094 510 1179 522 1094 b 838 1322 768 1094 838 1168 l 672 1322 b 615 1247 669 1272 656 1247 b 414 1332 551 1247 539 1332 b 224 1104 293 1332 224 1258 l 388 1104 b 446 1179 392 1154 404 1179 z m 1050 0 l 644 1007 l 417 1007 l 11 0 l 244 0 l 326 214 l 731 214 l 813 0 z m 526 742 l 656 408 l 400 408 z "},"Æ":{"ha":1522,"x_min":0,"x_max":0,"o":"m 951 417 l 1383 417 l 1383 610 l 951 610 l 951 814 l 1442 814 l 1442 1007 l 614 1007 l 11 0 l 263 0 l 386 214 l 719 214 l 719 0 l 1447 0 l 1447 193 l 951 193 z m 719 793 l 719 408 l 499 408 z "},"B":{"ha":960,"x_min":0,"x_max":0,"o":"m 732 525 b 869 739 818 565 869 639 b 535 1007 869 906 729 1007 l 101 1007 l 101 0 l 565 0 b 908 276 768 0 908 104 b 732 525 908 397 840 486 z m 632 714 b 510 606 632 650 586 606 l 333 606 l 333 819 l 510 819 b 632 714 586 819 632 774 z m 333 188 l 333 425 l 542 425 b 671 308 622 425 671 378 b 542 188 671 235 622 188 z "},"C":{"ha":1092,"x_min":0,"x_max":0,"o":"m 572 -25 b 1043 313 813 -25 989 107 l 804 313 b 571 169 763 224 681 169 b 293 504 403 169 293 301 b 571 838 293 701 399 838 b 807 692 683 838 765 782 l 1043 692 b 571 1032 990 899 813 1032 b 54 504 269 1032 54 808 b 572 -25 54 199 268 -25 z "},"Ć":{"ha":1092,"x_min":0,"x_max":0,"o":"m 647 1097 l 865 1331 l 601 1331 l 468 1097 z m 572 -25 b 1043 313 813 -25 989 107 l 804 313 b 571 169 763 224 681 169 b 293 504 403 169 293 301 b 571 838 293 701 399 838 b 807 692 683 838 765 782 l 1043 692 b 571 1032 990 899 813 1032 b 54 504 269 1032 54 808 b 572 -25 54 199 268 -25 z "},"Č":{"ha":1092,"x_min":0,"x_max":0,"o":"m 865 1331 l 665 1331 l 574 1228 l 481 1331 l 281 1331 l 475 1097 l 672 1097 z m 571 169 b 293 504 403 169 293 301 b 571 838 293 701 399 838 b 807 692 683 838 765 782 l 1043 692 b 571 1032 990 899 813 1032 b 54 504 269 1032 54 808 b 572 -25 54 199 268 -25 b 1043 313 813 -25 989 107 l 804 313 b 571 169 763 224 681 169 z "},"Ç":{"ha":1092,"x_min":0,"x_max":0,"o":"m 571 169 b 293 504 403 169 293 301 b 571 838 293 701 399 838 b 807 692 683 838 765 782 l 1043 692 b 571 1032 990 899 813 1032 b 54 504 269 1032 54 808 b 488 -19 54 228 229 18 l 447 -78 l 475 -132 l 497 -132 b 540 -161 529 -132 540 -142 b 488 -187 540 -181 521 -187 b 426 -185 465 -187 453 -187 l 426 -282 b 511 -289 456 -287 483 -289 b 693 -171 642 -289 693 -246 b 572 -68 693 -111 643 -74 l 606 -24 b 1043 313 829 -12 992 117 l 804 313 b 571 169 763 224 681 169 z "},"Ĉ":{"ha":1092,"x_min":0,"x_max":0,"o":"m 665 1097 l 865 1097 l 672 1331 l 475 1331 l 281 1097 l 481 1097 l 574 1199 z m 571 169 b 293 504 403 169 293 301 b 571 838 293 701 399 838 b 807 692 683 838 765 782 l 1043 692 b 571 1032 990 899 813 1032 b 54 504 269 1032 54 808 b 572 -25 54 199 268 -25 b 1043 313 813 -25 989 107 l 804 313 b 571 169 763 224 681 169 z "},"Ċ":{"ha":1092,"x_min":0,"x_max":0,"o":"m 574 1094 b 706 1221 644 1094 706 1149 b 574 1349 706 1294 647 1349 b 442 1221 499 1349 442 1294 b 574 1094 442 1149 499 1094 z m 572 -25 b 1043 313 813 -25 989 107 l 804 313 b 571 169 763 224 681 169 b 293 504 403 169 293 301 b 571 838 293 701 399 838 b 807 692 683 838 765 782 l 1043 692 b 571 1032 990 899 813 1032 b 54 504 269 1032 54 808 b 572 -25 54 199 268 -25 z "},"D":{"ha":1032,"x_min":0,"x_max":0,"o":"m 101 1007 l 101 0 l 464 0 b 978 504 765 0 978 208 b 464 1007 978 799 765 1007 z m 333 193 l 333 814 l 460 814 b 739 504 624 814 739 683 b 460 193 739 324 624 193 z "},"Ð":{"ha":1032,"x_min":0,"x_max":0,"o":"m 101 1007 l 101 597 l 10 597 l 10 410 l 101 410 l 101 0 l 464 0 b 978 504 765 0 978 208 b 464 1007 978 799 765 1007 z m 333 193 l 333 410 l 543 410 l 543 597 l 333 597 l 333 814 l 460 814 b 739 504 624 814 739 683 b 460 193 739 324 624 193 z "},"Ď":{"ha":1032,"x_min":0,"x_max":0,"o":"m 793 1331 l 593 1331 l 501 1228 l 408 1331 l 208 1331 l 403 1097 l 600 1097 z m 101 1007 l 101 0 l 464 0 b 978 504 765 0 978 208 b 464 1007 978 799 765 1007 z m 333 193 l 333 814 l 460 814 b 739 504 624 814 739 683 b 460 193 739 324 624 193 z "},"Đ":{"ha":1032,"x_min":0,"x_max":0,"o":"m 101 1007 l 101 599 l 10 599 l 10 410 l 101 410 l 101 0 l 464 0 b 978 504 765 0 978 208 b 464 1007 978 799 765 1007 z m 333 193 l 333 410 l 542 410 l 542 599 l 333 599 l 333 814 l 460 814 b 739 504 624 814 739 683 b 460 193 739 324 624 193 z "},"E":{"ha":904,"x_min":0,"x_max":0,"o":"m 333 417 l 765 417 l 765 610 l 333 610 l 333 814 l 824 814 l 824 1007 l 101 1007 l 101 0 l 829 0 l 829 193 l 333 193 z "},"É":{"ha":904,"x_min":0,"x_max":0,"o":"m 490 1331 l 357 1097 l 536 1097 l 754 1331 z m 333 417 l 765 417 l 765 610 l 333 610 l 333 814 l 824 814 l 824 1007 l 101 1007 l 101 0 l 829 0 l 829 193 l 333 193 z "},"Ĕ":{"ha":904,"x_min":0,"x_max":0,"o":"m 460 1092 b 728 1324 631 1092 726 1172 l 550 1324 b 463 1232 547 1258 517 1232 b 372 1324 408 1232 375 1258 l 197 1324 b 460 1092 199 1172 308 1092 z m 333 417 l 765 417 l 765 610 l 333 610 l 333 814 l 824 814 l 824 1007 l 101 1007 l 101 0 l 829 0 l 829 193 l 333 193 z "},"Ě":{"ha":904,"x_min":0,"x_max":0,"o":"m 754 1331 l 554 1331 l 463 1228 l 369 1331 l 169 1331 l 364 1097 l 561 1097 z m 333 417 l 765 417 l 765 610 l 333 610 l 333 814 l 824 814 l 824 1007 l 101 1007 l 101 0 l 829 0 l 829 193 l 333 193 z "},"Ê":{"ha":904,"x_min":0,"x_max":0,"o":"m 554 1097 l 754 1097 l 561 1331 l 364 1331 l 169 1097 l 369 1097 l 463 1199 z m 333 417 l 765 417 l 765 610 l 333 610 l 333 814 l 824 814 l 824 1007 l 101 1007 l 101 0 l 829 0 l 829 193 l 333 193 z "},"Ë":{"ha":904,"x_min":0,"x_max":0,"o":"m 264 1093 b 382 1207 328 1093 382 1143 b 264 1322 382 1272 331 1322 b 146 1207 197 1322 146 1272 b 264 1093 146 1143 197 1093 z m 660 1093 b 776 1207 722 1093 776 1143 b 660 1322 776 1272 725 1322 b 540 1207 592 1322 540 1272 b 660 1093 540 1143 592 1093 z m 333 417 l 765 417 l 765 610 l 333 610 l 333 814 l 824 814 l 824 1007 l 101 1007 l 101 0 l 829 0 l 829 193 l 333 193 z "},"Ė":{"ha":904,"x_min":0,"x_max":0,"o":"m 461 1094 b 593 1221 532 1094 593 1149 b 461 1349 593 1294 535 1349 b 329 1221 386 1349 329 1294 b 461 1094 329 1149 386 1094 z m 333 417 l 765 417 l 765 610 l 333 610 l 333 814 l 824 814 l 824 1007 l 101 1007 l 101 0 l 829 0 l 829 193 l 333 193 z "},"È":{"ha":904,"x_min":0,"x_max":0,"o":"m 435 1331 l 171 1331 l 386 1097 l 564 1097 z m 333 417 l 765 417 l 765 610 l 333 610 l 333 814 l 824 814 l 824 1007 l 101 1007 l 101 0 l 829 0 l 829 193 l 333 193 z "},"Ē":{"ha":904,"x_min":0,"x_max":0,"o":"m 200 1260 l 200 1104 l 724 1104 l 724 1260 z m 333 417 l 765 417 l 765 610 l 333 610 l 333 814 l 824 814 l 824 1007 l 101 1007 l 101 0 l 829 0 l 829 193 l 333 193 z "},"Ę":{"ha":904,"x_min":0,"x_max":0,"o":"m 333 417 l 765 417 l 765 610 l 333 610 l 333 814 l 824 814 l 824 1007 l 101 1007 l 101 0 l 657 0 b 568 -162 600 -47 568 -101 b 733 -292 568 -237 622 -292 b 828 -282 764 -292 797 -290 l 828 -165 l 810 -165 b 743 -121 768 -165 743 -151 b 828 0 743 -74 775 -29 l 829 0 l 829 193 l 333 193 z "},"Ẽ":{"ha":904,"x_min":0,"x_max":0,"o":"m 378 1179 b 579 1094 442 1179 454 1094 b 769 1322 700 1094 769 1168 l 604 1322 b 547 1247 601 1272 588 1247 b 346 1332 483 1247 471 1332 b 156 1104 225 1332 156 1258 l 319 1104 b 378 1179 324 1154 336 1179 z m 333 417 l 765 417 l 765 610 l 333 610 l 333 814 l 824 814 l 824 1007 l 101 1007 l 101 0 l 829 0 l 829 193 l 333 193 z "},"F":{"ha":871,"x_min":0,"x_max":0,"o":"m 804 1007 l 101 1007 l 101 0 l 333 0 l 333 397 l 743 397 l 743 592 l 333 592 l 333 814 l 804 814 z "},"Ƒ":{"ha":801,"x_min":0,"x_max":0,"o":"m 781 828 l 781 1007 l 603 1007 b 346 818 454 1007 371 956 l 322 685 l 156 685 l 156 507 l 292 507 l 206 13 b 99 -71 194 -44 164 -71 l -21 -71 l -21 -250 l 164 -250 b 414 -61 307 -250 390 -200 l 514 507 l 733 507 l 733 685 l 544 685 l 556 744 b 663 828 565 801 597 828 z "},"G":{"ha":1138,"x_min":0,"x_max":0,"o":"m 532 369 l 840 369 b 575 169 817 246 713 169 b 290 504 397 169 290 303 b 571 838 290 703 397 838 b 788 726 668 838 743 796 l 1033 726 b 574 1032 969 913 799 1032 b 54 501 268 1032 54 808 b 543 -25 54 182 278 -25 b 838 99 688 -25 779 31 l 838 0 l 1043 0 l 1043 558 l 532 558 z "},"Ğ":{"ha":1138,"x_min":0,"x_max":0,"o":"m 565 1092 b 833 1324 736 1092 832 1172 l 656 1324 b 568 1232 653 1258 622 1232 b 478 1324 514 1232 481 1258 l 303 1324 b 565 1092 304 1172 414 1092 z m 532 369 l 840 369 b 575 169 817 246 713 169 b 290 504 397 169 290 303 b 571 838 290 703 397 838 b 788 726 668 838 743 796 l 1033 726 b 574 1032 969 913 799 1032 b 54 501 268 1032 54 808 b 543 -25 54 182 278 -25 b 838 99 688 -25 779 31 l 838 0 l 1043 0 l 1043 558 l 532 558 z "},"Ǧ":{"ha":1138,"x_min":0,"x_max":0,"o":"m 860 1331 l 660 1331 l 568 1228 l 475 1331 l 275 1331 l 469 1097 l 667 1097 z m 532 369 l 840 369 b 575 169 817 246 713 169 b 290 504 397 169 290 303 b 571 838 290 703 397 838 b 788 726 668 838 743 796 l 1033 726 b 574 1032 969 913 799 1032 b 54 501 268 1032 54 808 b 543 -25 54 182 278 -25 b 838 99 688 -25 779 31 l 838 0 l 1043 0 l 1043 558 l 532 558 z "},"Ĝ":{"ha":1138,"x_min":0,"x_max":0,"o":"m 660 1097 l 860 1097 l 667 1331 l 469 1331 l 275 1097 l 475 1097 l 568 1199 z m 532 369 l 840 369 b 575 169 817 246 713 169 b 290 504 397 169 290 303 b 571 838 290 703 397 838 b 788 726 668 838 743 796 l 1033 726 b 574 1032 969 913 799 1032 b 54 501 268 1032 54 808 b 543 -25 54 182 278 -25 b 838 99 688 -25 779 31 l 838 0 l 1043 0 l 1043 558 l 532 558 z "},"Ģ":{"ha":1138,"x_min":0,"x_max":0,"o":"m 532 369 l 840 369 b 575 169 817 246 713 169 b 290 504 397 169 290 303 b 571 838 290 703 397 838 b 788 726 668 838 743 796 l 1033 726 b 574 1032 969 913 799 1032 b 54 501 268 1032 54 808 b 543 -25 54 182 278 -25 b 838 99 688 -25 779 31 l 838 0 l 1043 0 l 1043 558 l 532 558 z m 588 -308 l 671 -83 l 465 -83 l 429 -308 z "},"Ġ":{"ha":1138,"x_min":0,"x_max":0,"o":"m 568 1094 b 700 1221 639 1094 700 1149 b 568 1349 700 1294 642 1349 b 436 1221 493 1349 436 1294 b 568 1094 436 1149 493 1094 z m 532 369 l 840 369 b 575 169 817 246 713 169 b 290 504 397 169 290 303 b 571 838 290 703 397 838 b 788 726 668 838 743 796 l 1033 726 b 574 1032 969 913 799 1032 b 54 501 268 1032 54 808 b 543 -25 54 182 278 -25 b 838 99 688 -25 779 31 l 838 0 l 1043 0 l 1043 558 l 532 558 z "},"H":{"ha":1049,"x_min":0,"x_max":0,"o":"m 714 610 l 333 610 l 333 1007 l 101 1007 l 101 0 l 333 0 l 333 417 l 714 417 l 714 0 l 947 0 l 947 1007 l 714 1007 z "},"Ħ":{"ha":1049,"x_min":0,"x_max":0,"o":"m 947 907 l 947 1007 l 714 1007 l 714 907 l 333 907 l 333 1007 l 101 1007 l 101 907 l 10 907 l 10 719 l 101 719 l 101 0 l 333 0 l 333 417 l 714 417 l 714 0 l 947 0 l 947 719 l 1039 719 l 1039 907 z m 333 610 l 333 719 l 714 719 l 714 610 z "},"Ĥ":{"ha":1049,"x_min":0,"x_max":0,"o":"m 615 1097 l 815 1097 l 622 1331 l 425 1331 l 231 1097 l 431 1097 l 524 1199 z m 714 610 l 333 610 l 333 1007 l 101 1007 l 101 0 l 333 0 l 333 417 l 714 417 l 714 0 l 947 0 l 947 1007 l 714 1007 z "},"I":{"ha":435,"x_min":0,"x_max":0,"o":"m 333 0 l 333 1007 l 101 1007 l 101 0 z "},"Ĳ":{"ha":1031,"x_min":0,"x_max":0,"o":"m 333 0 l 333 1007 l 101 1007 l 101 0 z m 644 0 b 936 293 903 0 936 153 l 936 1007 l 703 1007 l 703 308 b 593 193 703 224 675 193 l 464 193 l 464 0 z "},"Í":{"ha":435,"x_min":0,"x_max":0,"o":"m 292 1097 l 510 1331 l 246 1331 l 113 1097 z m 333 0 l 333 1007 l 101 1007 l 101 0 z "},"Ĭ":{"ha":435,"x_min":0,"x_max":0,"o":"m 215 1092 b 483 1324 386 1092 482 1172 l 306 1324 b 218 1232 303 1258 272 1232 b 128 1324 164 1232 131 1258 l -47 1324 b 215 1092 -46 1172 64 1092 z m 333 0 l 333 1007 l 101 1007 l 101 0 z "},"Ǐ":{"ha":435,"x_min":0,"x_max":0,"o":"m 510 1331 l 310 1331 l 218 1228 l 125 1331 l -75 1331 l 119 1097 l 317 1097 z m 333 0 l 333 1007 l 101 1007 l 101 0 z "},"Î":{"ha":435,"x_min":0,"x_max":0,"o":"m 310 1097 l 510 1097 l 317 1331 l 119 1331 l -75 1097 l 125 1097 l 218 1199 z m 333 0 l 333 1007 l 101 1007 l 101 0 z "},"Ï":{"ha":435,"x_min":0,"x_max":0,"o":"m 19 1093 b 138 1207 83 1093 138 1143 b 19 1322 138 1272 86 1322 b -99 1207 -47 1322 -99 1272 b 19 1093 -99 1143 -47 1093 z m 415 1093 b 532 1207 478 1093 532 1143 b 415 1322 532 1272 481 1322 b 296 1207 347 1322 296 1272 b 415 1093 296 1143 347 1093 z m 333 0 l 333 1007 l 101 1007 l 101 0 z "},"İ":{"ha":435,"x_min":0,"x_max":0,"o":"m 217 1094 b 349 1221 288 1094 349 1149 b 217 1349 349 1294 290 1349 b 85 1221 142 1349 85 1294 b 217 1094 85 1149 142 1094 z m 333 0 l 333 1007 l 101 1007 l 101 0 z "},"Ị":{"ha":435,"x_min":0,"x_max":0,"o":"m 333 0 l 333 1007 l 101 1007 l 101 0 z m 217 -350 b 349 -224 288 -350 349 -296 b 217 -96 349 -150 290 -96 b 85 -224 142 -96 85 -150 b 217 -350 85 -296 142 -350 z "},"Ì":{"ha":435,"x_min":0,"x_max":0,"o":"m 319 1097 l 190 1331 l -74 1331 l 142 1097 z m 333 0 l 333 1007 l 101 1007 l 101 0 z "},"Ī":{"ha":435,"x_min":0,"x_max":0,"o":"m 479 1104 l 479 1260 l -44 1260 l -44 1104 z m 333 0 l 333 1007 l 101 1007 l 101 0 z "},"Į":{"ha":435,"x_min":0,"x_max":0,"o":"m 333 1007 l 101 1007 l 101 0 l 163 0 b 74 -162 106 -47 74 -101 b 239 -292 74 -237 128 -292 b 333 -282 269 -292 303 -290 l 333 -165 l 315 -165 b 249 -121 274 -165 249 -151 b 333 0 249 -74 281 -29 z "},"Ĩ":{"ha":435,"x_min":0,"x_max":0,"o":"m 335 1094 b 525 1322 456 1094 525 1168 l 360 1322 b 303 1247 357 1272 343 1247 b 101 1332 239 1247 226 1332 b -89 1104 -19 1332 -89 1258 l 75 1104 b 133 1179 79 1154 92 1179 b 335 1094 197 1179 210 1094 z m 333 0 l 333 1007 l 101 1007 l 101 0 z "},"J":{"ha":596,"x_min":0,"x_max":0,"o":"m 210 0 b 501 293 468 0 501 153 l 501 1007 l 268 1007 l 268 308 b 158 193 268 224 240 193 l 29 193 l 29 0 z "},"Ĵ":{"ha":596,"x_min":0,"x_max":0,"o":"m 476 1097 l 676 1097 l 483 1331 l 286 1331 l 92 1097 l 292 1097 l 385 1199 z m 268 308 b 158 193 268 224 240 193 l 29 193 l 29 0 l 210 0 b 501 293 468 0 501 153 l 501 1007 l 268 1007 z "},"K":{"ha":982,"x_min":0,"x_max":0,"o":"m 969 0 l 574 583 l 940 1007 l 682 1007 l 333 597 l 333 1007 l 101 1007 l 101 0 l 333 0 l 333 304 l 422 408 l 699 0 z "},"Ķ":{"ha":982,"x_min":0,"x_max":0,"o":"m 940 1007 l 682 1007 l 333 597 l 333 1007 l 101 1007 l 101 0 l 333 0 l 333 304 l 422 408 l 699 0 l 969 0 l 574 583 z m 515 -308 l 599 -83 l 393 -83 l 357 -308 z "},"L":{"ha":842,"x_min":0,"x_max":0,"o":"m 333 1007 l 101 1007 l 101 0 l 789 0 l 789 193 l 333 193 z "},"Ĺ":{"ha":842,"x_min":0,"x_max":0,"o":"m 246 1331 l 113 1097 l 292 1097 l 510 1331 z m 333 1007 l 101 1007 l 101 0 l 789 0 l 789 193 l 333 193 z "},"Ľ":{"ha":842,"x_min":0,"x_max":0,"o":"m 333 1007 l 101 1007 l 101 0 l 789 0 l 789 193 l 333 193 z m 417 1007 l 410 678 l 553 678 l 610 1007 z "},"Ļ":{"ha":842,"x_min":0,"x_max":0,"o":"m 333 1007 l 101 1007 l 101 0 l 789 0 l 789 193 l 333 193 z m 449 -308 l 532 -83 l 326 -83 l 290 -308 z "},"Ł":{"ha":842,"x_min":0,"x_max":0,"o":"m 333 363 l 558 492 l 558 715 l 333 585 l 333 1007 l 101 1007 l 101 468 l 18 418 l 18 196 l 101 246 l 101 0 l 789 0 l 789 193 l 333 193 z "},"M":{"ha":1272,"x_min":0,"x_max":0,"o":"m 640 453 l 319 1007 l 101 1007 l 101 0 l 322 0 l 322 619 l 575 183 l 708 183 l 949 613 l 949 0 l 1171 0 l 1171 1007 l 953 1007 z "},"N":{"ha":1050,"x_min":0,"x_max":0,"o":"m 735 378 l 297 1007 l 101 1007 l 101 0 l 314 0 l 314 633 l 753 0 l 949 0 l 949 1007 l 735 1007 z "},"Ń":{"ha":1050,"x_min":0,"x_max":0,"o":"m 553 1331 l 419 1097 l 599 1097 l 817 1331 z m 735 378 l 297 1007 l 101 1007 l 101 0 l 314 0 l 314 633 l 753 0 l 949 0 l 949 1007 l 735 1007 z "},"Ň":{"ha":1050,"x_min":0,"x_max":0,"o":"m 817 1331 l 617 1331 l 525 1228 l 432 1331 l 232 1331 l 426 1097 l 624 1097 z m 735 378 l 297 1007 l 101 1007 l 101 0 l 314 0 l 314 633 l 753 0 l 949 0 l 949 1007 l 735 1007 z "},"Ņ":{"ha":1050,"x_min":0,"x_max":0,"o":"m 735 378 l 297 1007 l 101 1007 l 101 0 l 314 0 l 314 633 l 753 0 l 949 0 l 949 1007 l 735 1007 z m 544 -308 l 628 -83 l 422 -83 l 386 -308 z "},"Ñ":{"ha":1050,"x_min":0,"x_max":0,"o":"m 440 1179 b 642 1094 504 1179 517 1094 b 832 1322 763 1094 832 1168 l 667 1322 b 610 1247 664 1272 650 1247 b 408 1332 546 1247 533 1332 b 218 1104 288 1332 218 1258 l 382 1104 b 440 1179 386 1154 399 1179 z m 735 378 l 297 1007 l 101 1007 l 101 0 l 314 0 l 314 633 l 753 0 l 949 0 l 949 1007 l 735 1007 z "},"O":{"ha":1167,"x_min":0,"x_max":0,"o":"m 585 -25 b 1113 504 894 -25 1113 194 b 585 1032 1113 814 894 1032 b 54 504 274 1032 54 814 b 585 -25 54 194 274 -25 z m 585 169 b 293 504 408 169 293 301 b 585 838 293 706 408 838 b 874 504 760 838 874 706 b 585 169 874 301 760 169 z "},"Ó":{"ha":1167,"x_min":0,"x_max":0,"o":"m 657 1097 l 875 1331 l 611 1331 l 478 1097 z m 585 -25 b 1113 504 894 -25 1113 194 b 585 1032 1113 814 894 1032 b 54 504 274 1032 54 814 b 585 -25 54 194 274 -25 z m 585 169 b 293 504 408 169 293 301 b 585 838 293 706 408 838 b 874 504 760 838 874 706 b 585 169 874 301 760 169 z "},"Ŏ":{"ha":1167,"x_min":0,"x_max":0,"o":"m 581 1092 b 849 1324 751 1092 847 1172 l 671 1324 b 583 1232 668 1258 638 1232 b 493 1324 529 1232 496 1258 l 318 1324 b 581 1092 319 1172 429 1092 z m 585 -25 b 1113 504 894 -25 1113 194 b 585 1032 1113 814 894 1032 b 54 504 274 1032 54 814 b 585 -25 54 194 274 -25 z m 585 169 b 293 504 408 169 293 301 b 585 838 293 706 408 838 b 874 504 760 838 874 706 b 585 169 874 301 760 169 z "},"Ǒ":{"ha":1167,"x_min":0,"x_max":0,"o":"m 875 1331 l 675 1331 l 583 1228 l 490 1331 l 290 1331 l 485 1097 l 682 1097 z m 585 1032 b 54 504 274 1032 54 814 b 585 -25 54 194 274 -25 b 1113 504 894 -25 1113 194 b 585 1032 1113 814 894 1032 z m 585 169 b 293 504 408 169 293 301 b 585 838 293 706 408 838 b 874 504 760 838 874 706 b 585 169 874 301 760 169 z "},"Ô":{"ha":1167,"x_min":0,"x_max":0,"o":"m 675 1097 l 875 1097 l 682 1331 l 485 1331 l 290 1097 l 490 1097 l 583 1199 z m 585 1032 b 54 504 274 1032 54 814 b 585 -25 54 194 274 -25 b 1113 504 894 -25 1113 194 b 585 1032 1113 814 894 1032 z m 585 169 b 293 504 408 169 293 301 b 585 838 293 706 408 838 b 874 504 760 838 874 706 b 585 169 874 301 760 169 z "},"Ö":{"ha":1167,"x_min":0,"x_max":0,"o":"m 386 1093 b 504 1207 450 1093 504 1143 b 386 1322 504 1272 453 1322 b 268 1207 319 1322 268 1272 b 386 1093 268 1143 319 1093 z m 782 1093 b 899 1207 844 1093 899 1143 b 782 1322 899 1272 847 1322 b 663 1207 714 1322 663 1272 b 782 1093 663 1143 714 1093 z m 585 -25 b 1113 504 894 -25 1113 194 b 585 1032 1113 814 894 1032 b 54 504 274 1032 54 814 b 585 -25 54 194 274 -25 z m 585 169 b 293 504 408 169 293 301 b 585 838 293 706 408 838 b 874 504 760 838 874 706 b 585 169 874 301 760 169 z "},"Ọ":{"ha":1167,"x_min":0,"x_max":0,"o":"m 585 -25 b 1113 504 894 -25 1113 194 b 585 1032 1113 814 894 1032 b 54 504 274 1032 54 814 b 585 -25 54 194 274 -25 z m 585 169 b 293 504 408 169 293 301 b 585 838 293 706 408 838 b 874 504 760 838 874 706 b 585 169 874 301 760 169 z m 583 -350 b 715 -224 654 -350 715 -296 b 583 -96 715 -150 657 -96 b 451 -224 508 -96 451 -150 b 583 -350 451 -296 508 -350 z "},"Ò":{"ha":1167,"x_min":0,"x_max":0,"o":"m 685 1097 l 556 1331 l 292 1331 l 507 1097 z m 585 -25 b 1113 504 894 -25 1113 194 b 585 1032 1113 814 894 1032 b 54 504 274 1032 54 814 b 585 -25 54 194 274 -25 z m 585 169 b 293 504 408 169 293 301 b 585 838 293 706 408 838 b 874 504 760 838 874 706 b 585 169 874 301 760 169 z "},"Ő":{"ha":1167,"x_min":0,"x_max":0,"o":"m 522 1097 l 644 1331 l 436 1331 l 367 1097 z m 800 1097 l 946 1331 l 739 1331 l 644 1097 z m 585 -25 b 1113 504 894 -25 1113 194 b 585 1032 1113 814 894 1032 b 54 504 274 1032 54 814 b 585 -25 54 194 274 -25 z m 585 169 b 293 504 408 169 293 301 b 585 838 293 706 408 838 b 874 504 760 838 874 706 b 585 169 874 301 760 169 z "},"Ō":{"ha":1167,"x_min":0,"x_max":0,"o":"m 844 1104 l 844 1260 l 321 1260 l 321 1104 z m 585 -25 b 1113 504 894 -25 1113 194 b 585 1032 1113 814 894 1032 b 54 504 274 1032 54 814 b 585 -25 54 194 274 -25 z m 585 169 b 293 504 408 169 293 301 b 585 838 293 706 408 838 b 874 504 760 838 874 706 b 585 169 874 301 760 169 z "},"Ø":{"ha":1167,"x_min":0,"x_max":0,"o":"m 922 1007 l 875 954 b 585 1032 793 1004 694 1032 b 54 504 274 1032 54 814 b 175 154 54 365 99 246 l 35 0 l 243 0 l 292 54 b 585 -25 374 3 474 -25 b 1113 504 894 -25 1113 194 b 992 854 1113 643 1068 764 l 1131 1007 z m 585 838 b 733 799 642 838 692 824 l 332 324 b 293 504 307 374 293 435 b 585 838 293 706 408 838 z m 585 169 b 433 210 528 169 476 183 l 835 686 b 874 504 860 635 874 574 b 585 169 874 301 760 169 z "},"Õ":{"ha":1167,"x_min":0,"x_max":0,"o":"m 700 1094 b 890 1322 821 1094 890 1168 l 725 1322 b 668 1247 722 1272 708 1247 b 467 1332 604 1247 592 1332 b 276 1104 346 1332 276 1258 l 440 1104 b 499 1179 444 1154 457 1179 b 700 1094 563 1179 575 1094 z m 585 -25 b 1113 504 894 -25 1113 194 b 585 1032 1113 814 894 1032 b 54 504 274 1032 54 814 b 585 -25 54 194 274 -25 z m 585 169 b 293 504 408 169 293 301 b 585 838 293 706 408 838 b 874 504 760 838 874 706 b 585 169 874 301 760 169 z "},"Œ":{"ha":1681,"x_min":0,"x_max":0,"o":"m 1110 417 l 1542 417 l 1542 610 l 1110 610 l 1110 814 l 1600 814 l 1600 1007 l 878 1007 l 878 926 b 574 1032 797 993 693 1032 b 54 504 274 1032 54 814 b 574 -25 54 194 274 -25 b 878 82 693 -25 797 14 l 878 0 l 1606 0 l 1606 193 l 1110 193 z m 585 169 b 293 504 408 169 293 301 b 585 838 293 706 408 838 b 874 504 760 838 874 706 b 585 169 874 301 760 169 z "},"P":{"ha":942,"x_min":0,"x_max":0,"o":"m 101 1007 l 101 0 l 333 0 l 333 342 l 531 342 b 892 674 750 342 892 467 b 531 1007 892 879 750 1007 z m 333 536 l 333 814 l 519 814 b 663 674 607 814 663 758 b 519 536 663 589 607 536 z "},"Þ":{"ha":942,"x_min":0,"x_max":0,"o":"m 333 863 l 333 1007 l 101 1007 l 101 0 l 333 0 l 333 197 l 531 197 b 892 529 750 197 892 322 b 531 863 892 735 750 863 z m 333 390 l 333 668 l 519 668 b 663 529 607 668 663 613 b 519 390 663 444 607 390 z "},"Q":{"ha":1167,"x_min":0,"x_max":0,"o":"m 1113 504 b 585 1032 1113 814 894 1032 b 54 504 274 1032 54 814 b 585 -25 54 194 274 -25 b 826 26 674 -25 756 -7 l 850 0 l 1083 0 l 971 131 b 1113 504 1061 224 1113 353 z m 585 169 b 293 504 408 169 293 301 b 585 838 293 706 408 838 b 874 504 760 838 874 706 b 824 301 874 424 856 356 l 731 408 l 500 408 l 689 188 b 585 169 658 175 622 169 z "},"R":{"ha":954,"x_min":0,"x_max":0,"o":"m 924 0 l 661 389 b 868 685 789 431 868 535 b 511 1007 868 882 728 1007 l 101 1007 l 101 0 l 333 0 l 333 368 l 421 368 l 664 0 z m 508 814 b 638 679 585 814 638 761 b 508 550 638 599 585 550 l 333 550 l 333 814 z "},"Ŕ":{"ha":954,"x_min":0,"x_max":0,"o":"m 503 1331 l 369 1097 l 549 1097 l 767 1331 z m 924 0 l 661 389 b 868 685 789 431 868 535 b 511 1007 868 882 728 1007 l 101 1007 l 101 0 l 333 0 l 333 368 l 421 368 l 664 0 z m 508 814 b 638 679 585 814 638 761 b 508 550 638 599 585 550 l 333 550 l 333 814 z "},"Ř":{"ha":954,"x_min":0,"x_max":0,"o":"m 767 1331 l 567 1331 l 475 1228 l 382 1331 l 182 1331 l 376 1097 l 574 1097 z m 924 0 l 661 389 b 868 685 789 431 868 535 b 511 1007 868 882 728 1007 l 101 1007 l 101 0 l 333 0 l 333 368 l 421 368 l 664 0 z m 508 814 b 638 679 585 814 638 761 b 508 550 638 599 585 550 l 333 550 l 333 814 z "},"Ŗ":{"ha":954,"x_min":0,"x_max":0,"o":"m 661 389 b 868 685 789 431 868 535 b 511 1007 868 882 728 1007 l 101 1007 l 101 0 l 333 0 l 333 368 l 421 368 l 664 0 l 924 0 z m 508 814 b 638 679 585 814 638 761 b 508 550 638 599 585 550 l 333 550 l 333 814 z m 494 -308 l 578 -83 l 372 -83 l 336 -308 z "},"S":{"ha":921,"x_min":0,"x_max":0,"o":"m 463 -24 b 875 311 711 -24 875 99 b 575 599 875 464 790 574 l 431 617 b 292 724 386 622 292 639 b 458 850 292 796 357 850 b 636 724 557 850 617 800 l 857 724 b 460 1031 824 919 678 1031 b 57 701 219 1031 57 899 b 344 417 57 533 179 438 l 492 397 b 642 285 569 388 642 361 b 468 156 642 197 560 156 b 260 299 383 156 289 190 l 32 299 b 463 -24 69 75 238 -24 z "},"Ś":{"ha":921,"x_min":0,"x_max":0,"o":"m 535 1097 l 753 1331 l 489 1331 l 356 1097 z m 463 -24 b 875 311 711 -24 875 99 b 575 599 875 464 790 574 l 431 617 b 292 724 386 622 292 639 b 458 850 292 796 357 850 b 636 724 557 850 617 800 l 857 724 b 460 1031 824 919 678 1031 b 57 701 219 1031 57 899 b 344 417 57 533 179 438 l 492 397 b 642 285 569 388 642 361 b 468 156 642 197 560 156 b 260 299 383 156 289 190 l 32 299 b 463 -24 69 75 238 -24 z "},"Š":{"ha":921,"x_min":0,"x_max":0,"o":"m 753 1331 l 553 1331 l 461 1228 l 368 1331 l 168 1331 l 363 1097 l 560 1097 z m 431 617 b 292 724 386 622 292 639 b 458 850 292 796 357 850 b 636 724 557 850 617 800 l 857 724 b 460 1031 824 919 678 1031 b 57 701 219 1031 57 899 b 344 417 57 533 179 438 l 492 397 b 642 285 569 388 642 361 b 468 156 642 197 560 156 b 260 299 383 156 289 190 l 32 299 b 463 -24 69 75 238 -24 b 875 311 711 -24 875 99 b 575 599 875 464 790 574 z "},"Ş":{"ha":921,"x_min":0,"x_max":0,"o":"m 875 311 b 575 599 875 464 790 574 l 431 617 b 292 724 386 622 292 639 b 458 850 292 796 357 850 b 636 724 557 850 617 800 l 857 724 b 460 1031 824 919 678 1031 b 57 701 219 1031 57 899 b 344 417 57 533 179 438 l 492 397 b 642 285 569 388 642 361 b 468 156 642 197 560 156 b 260 299 383 156 289 190 l 32 299 b 397 -21 65 97 206 -3 l 358 -78 l 386 -132 l 408 -132 b 451 -161 440 -132 451 -142 b 399 -187 451 -181 432 -187 b 338 -185 376 -187 364 -187 l 338 -282 b 422 -289 367 -287 394 -289 b 604 -171 553 -289 604 -246 b 483 -68 604 -111 554 -74 l 518 -21 b 875 311 736 -4 875 115 z "},"Ŝ":{"ha":921,"x_min":0,"x_max":0,"o":"m 553 1097 l 753 1097 l 560 1331 l 363 1331 l 168 1097 l 368 1097 l 461 1199 z m 431 617 b 292 724 386 622 292 639 b 458 850 292 796 357 850 b 636 724 557 850 617 800 l 857 724 b 460 1031 824 919 678 1031 b 57 701 219 1031 57 899 b 344 417 57 533 179 438 l 492 397 b 642 285 569 388 642 361 b 468 156 642 197 560 156 b 260 299 383 156 289 190 l 32 299 b 463 -24 69 75 238 -24 b 875 311 711 -24 875 99 b 575 599 875 464 790 574 z "},"Ș":{"ha":921,"x_min":0,"x_max":0,"o":"m 463 -24 b 875 311 711 -24 875 99 b 575 599 875 464 790 574 l 431 617 b 292 724 386 622 292 639 b 458 850 292 796 357 850 b 636 724 557 850 617 800 l 857 724 b 460 1031 824 919 678 1031 b 57 701 219 1031 57 899 b 344 417 57 533 179 438 l 492 397 b 642 285 569 388 642 361 b 468 156 642 197 560 156 b 260 299 383 156 289 190 l 32 299 b 463 -24 69 75 238 -24 z m 481 -308 l 564 -83 l 358 -83 l 322 -308 z "},"ẞ":{"ha":965,"x_min":0,"x_max":0,"o":"m 868 856 l 868 1007 l 101 1007 l 101 0 l 333 0 l 333 829 l 601 829 l 432 599 l 432 440 l 510 440 b 682 313 614 440 682 390 b 525 188 682 242 628 188 b 428 190 493 188 465 189 l 428 0 b 547 -6 464 -4 511 -6 b 913 301 779 -6 913 124 b 668 585 913 443 822 551 z "},"T":{"ha":908,"x_min":0,"x_max":0,"o":"m 38 1007 l 38 814 l 338 814 l 338 0 l 571 0 l 571 814 l 871 814 l 871 1007 z "},"Ť":{"ha":908,"x_min":0,"x_max":0,"o":"m 746 1331 l 546 1331 l 454 1228 l 361 1331 l 161 1331 l 356 1097 l 553 1097 z m 38 1007 l 38 814 l 338 814 l 338 0 l 571 0 l 571 814 l 871 814 l 871 1007 z "},"Ţ":{"ha":908,"x_min":0,"x_max":0,"o":"m 571 814 l 871 814 l 871 1007 l 38 1007 l 38 814 l 338 814 l 338 0 l 407 0 l 353 -78 l 381 -132 l 403 -132 b 446 -161 435 -132 446 -142 b 393 -187 446 -181 426 -187 b 332 -185 371 -187 358 -187 l 332 -282 b 417 -289 361 -287 389 -289 b 599 -171 547 -289 599 -246 b 478 -68 599 -111 549 -74 l 529 0 l 571 0 z "},"Ț":{"ha":908,"x_min":0,"x_max":0,"o":"m 38 1007 l 38 814 l 338 814 l 338 0 l 571 0 l 571 814 l 871 814 l 871 1007 z m 474 -308 l 557 -83 l 351 -83 l 315 -308 z "},"U":{"ha":1010,"x_min":0,"x_max":0,"o":"m 507 -25 b 922 379 756 -25 922 111 l 922 1007 l 690 1007 l 690 381 b 507 168 690 238 615 168 b 319 381 396 168 319 238 l 319 1007 l 88 1007 l 88 379 b 507 -25 88 111 256 -25 z "},"Ú":{"ha":1010,"x_min":0,"x_max":0,"o":"m 579 1097 l 797 1331 l 533 1331 l 400 1097 z m 507 -25 b 922 379 756 -25 922 111 l 922 1007 l 690 1007 l 690 381 b 507 168 690 238 615 168 b 319 381 396 168 319 238 l 319 1007 l 88 1007 l 88 379 b 507 -25 88 111 256 -25 z "},"Ŭ":{"ha":1010,"x_min":0,"x_max":0,"o":"m 501 1092 b 769 1324 672 1092 768 1172 l 592 1324 b 504 1232 589 1258 558 1232 b 414 1324 450 1232 417 1258 l 239 1324 b 501 1092 240 1172 350 1092 z m 507 -25 b 922 379 756 -25 922 111 l 922 1007 l 690 1007 l 690 381 b 507 168 690 238 615 168 b 319 381 396 168 319 238 l 319 1007 l 88 1007 l 88 379 b 507 -25 88 111 256 -25 z "},"Ǔ":{"ha":1010,"x_min":0,"x_max":0,"o":"m 796 1331 l 596 1331 l 504 1228 l 411 1331 l 211 1331 l 406 1097 l 603 1097 z m 690 381 b 507 168 690 238 615 168 b 319 381 396 168 319 238 l 319 1007 l 88 1007 l 88 379 b 507 -25 88 111 256 -25 b 922 379 756 -25 922 111 l 922 1007 l 690 1007 z "},"Û":{"ha":1010,"x_min":0,"x_max":0,"o":"m 596 1097 l 796 1097 l 603 1331 l 406 1331 l 211 1097 l 411 1097 l 504 1199 z m 690 381 b 507 168 690 238 615 168 b 319 381 396 168 319 238 l 319 1007 l 88 1007 l 88 379 b 507 -25 88 111 256 -25 b 922 379 756 -25 922 111 l 922 1007 l 690 1007 z "},"Ü":{"ha":1010,"x_min":0,"x_max":0,"o":"m 307 1093 b 425 1207 371 1093 425 1143 b 307 1322 425 1272 374 1322 b 189 1207 240 1322 189 1272 b 307 1093 189 1143 240 1093 z m 703 1093 b 819 1207 765 1093 819 1143 b 703 1322 819 1272 768 1322 b 583 1207 635 1322 583 1272 b 703 1093 583 1143 635 1093 z m 507 -25 b 922 379 756 -25 922 111 l 922 1007 l 690 1007 l 690 381 b 507 168 690 238 615 168 b 319 381 396 168 319 238 l 319 1007 l 88 1007 l 88 379 b 507 -25 88 111 256 -25 z "},"Ụ":{"ha":1010,"x_min":0,"x_max":0,"o":"m 507 -25 b 922 379 756 -25 922 111 l 922 1007 l 690 1007 l 690 381 b 507 168 690 238 615 168 b 319 381 396 168 319 238 l 319 1007 l 88 1007 l 88 379 b 507 -25 88 111 256 -25 z m 504 -350 b 636 -224 575 -350 636 -296 b 504 -96 636 -150 578 -96 b 372 -224 429 -96 372 -150 b 504 -350 372 -296 429 -350 z "},"Ù":{"ha":1010,"x_min":0,"x_max":0,"o":"m 607 1097 l 478 1331 l 214 1331 l 429 1097 z m 507 -25 b 922 379 756 -25 922 111 l 922 1007 l 690 1007 l 690 381 b 507 168 690 238 615 168 b 319 381 396 168 319 238 l 319 1007 l 88 1007 l 88 379 b 507 -25 88 111 256 -25 z "},"Ű":{"ha":1010,"x_min":0,"x_max":0,"o":"m 444 1097 l 567 1331 l 358 1331 l 289 1097 z m 722 1097 l 868 1331 l 661 1331 l 567 1097 z m 507 -25 b 922 379 756 -25 922 111 l 922 1007 l 690 1007 l 690 381 b 507 168 690 238 615 168 b 319 381 396 168 319 238 l 319 1007 l 88 1007 l 88 379 b 507 -25 88 111 256 -25 z "},"Ū":{"ha":1010,"x_min":0,"x_max":0,"o":"m 767 1104 l 767 1260 l 243 1260 l 243 1104 z m 507 -25 b 922 379 756 -25 922 111 l 922 1007 l 690 1007 l 690 381 b 507 168 690 238 615 168 b 319 381 396 168 319 238 l 319 1007 l 88 1007 l 88 379 b 507 -25 88 111 256 -25 z "},"Ų":{"ha":1010,"x_min":0,"x_max":0,"o":"m 690 381 b 507 168 690 238 615 168 b 319 381 396 168 319 238 l 319 1007 l 88 1007 l 88 379 b 454 -22 88 131 232 -4 b 390 -162 413 -65 390 -111 b 556 -292 390 -237 444 -292 b 650 -282 586 -292 619 -290 l 650 -165 l 632 -165 b 565 -121 590 -165 565 -151 b 631 -12 565 -81 589 -42 b 922 379 810 26 922 158 l 922 1007 l 690 1007 z "},"Ů":{"ha":1010,"x_min":0,"x_max":0,"o":"m 504 1089 b 683 1263 610 1089 683 1161 b 504 1435 683 1363 610 1435 b 324 1263 399 1435 324 1363 b 504 1089 324 1161 399 1089 z m 504 1194 b 436 1263 465 1194 436 1222 b 504 1329 436 1301 465 1329 b 571 1263 544 1329 571 1301 b 504 1194 571 1222 544 1194 z m 507 -25 b 922 379 756 -25 922 111 l 922 1007 l 690 1007 l 690 381 b 507 168 690 238 615 168 b 319 381 396 168 319 238 l 319 1007 l 88 1007 l 88 379 b 507 -25 88 111 256 -25 z "},"Ũ":{"ha":1010,"x_min":0,"x_max":0,"o":"m 622 1094 b 813 1322 743 1094 813 1168 l 647 1322 b 590 1247 644 1272 631 1247 b 389 1332 526 1247 514 1332 b 199 1104 268 1332 199 1258 l 363 1104 b 421 1179 367 1154 379 1179 b 622 1094 485 1179 497 1094 z m 507 -25 b 922 379 756 -25 922 111 l 922 1007 l 690 1007 l 690 381 b 507 168 690 238 615 168 b 319 381 396 168 319 238 l 319 1007 l 88 1007 l 88 379 b 507 -25 88 111 256 -25 z "},"V":{"ha":1033,"x_min":0,"x_max":0,"o":"m 518 301 l 257 1007 l 11 1007 l 403 0 l 631 0 l 1022 1007 l 775 1007 z "},"W":{"ha":1493,"x_min":0,"x_max":0,"o":"m 1063 324 l 849 1007 l 640 1007 l 446 324 l 240 1007 l 11 1007 l 332 0 l 557 0 l 746 644 l 949 0 l 1168 0 l 1482 1007 l 1253 1007 z "},"Ẃ":{"ha":1493,"x_min":0,"x_max":0,"o":"m 775 1331 l 642 1097 l 821 1097 l 1039 1331 z m 1063 324 l 849 1007 l 640 1007 l 446 324 l 240 1007 l 11 1007 l 332 0 l 557 0 l 746 644 l 949 0 l 1168 0 l 1482 1007 l 1253 1007 z "},"Ŵ":{"ha":1493,"x_min":0,"x_max":0,"o":"m 839 1097 l 1039 1097 l 846 1331 l 649 1331 l 454 1097 l 654 1097 l 747 1199 z m 1063 324 l 849 1007 l 640 1007 l 446 324 l 240 1007 l 11 1007 l 332 0 l 557 0 l 746 644 l 949 0 l 1168 0 l 1482 1007 l 1253 1007 z "},"Ẅ":{"ha":1493,"x_min":0,"x_max":0,"o":"m 549 1093 b 667 1207 613 1093 667 1143 b 549 1322 667 1272 615 1322 b 431 1207 482 1322 431 1272 b 549 1093 431 1143 482 1093 z m 944 1093 b 1061 1207 1007 1093 1061 1143 b 944 1322 1061 1272 1010 1322 b 825 1207 876 1322 825 1272 b 944 1093 825 1143 876 1093 z m 1063 324 l 849 1007 l 640 1007 l 446 324 l 240 1007 l 11 1007 l 332 0 l 557 0 l 746 644 l 949 0 l 1168 0 l 1482 1007 l 1253 1007 z "},"Ẁ":{"ha":1493,"x_min":0,"x_max":0,"o":"m 719 1331 l 456 1331 l 671 1097 l 849 1097 z m 1063 324 l 849 1007 l 640 1007 l 446 324 l 240 1007 l 11 1007 l 332 0 l 557 0 l 746 644 l 949 0 l 1168 0 l 1482 1007 l 1253 1007 z "},"X":{"ha":1003,"x_min":0,"x_max":0,"o":"m 644 510 l 963 1007 l 706 1007 l 513 692 l 313 1007 l 39 1007 l 360 531 l 13 0 l 272 0 l 490 346 l 717 0 l 989 0 z "},"Y":{"ha":961,"x_min":0,"x_max":0,"o":"m 700 1007 l 490 617 l 272 1007 l 11 1007 l 364 396 l 364 0 l 597 0 l 597 399 l 949 1007 z "},"Ý":{"ha":961,"x_min":0,"x_max":0,"o":"m 508 1331 l 375 1097 l 554 1097 l 772 1331 z m 700 1007 l 490 617 l 272 1007 l 11 1007 l 364 396 l 364 0 l 597 0 l 597 399 l 949 1007 z "},"Ŷ":{"ha":961,"x_min":0,"x_max":0,"o":"m 572 1097 l 772 1097 l 579 1331 l 382 1331 l 188 1097 l 388 1097 l 481 1199 z m 700 1007 l 490 617 l 272 1007 l 11 1007 l 364 396 l 364 0 l 597 0 l 597 399 l 949 1007 z "},"Ÿ":{"ha":961,"x_min":0,"x_max":0,"o":"m 282 1093 b 400 1207 346 1093 400 1143 b 282 1322 400 1272 349 1322 b 164 1207 215 1322 164 1272 b 282 1093 164 1143 215 1093 z m 678 1093 b 794 1207 740 1093 794 1143 b 678 1322 794 1272 743 1322 b 558 1207 610 1322 558 1272 b 678 1093 558 1143 610 1093 z m 700 1007 l 490 617 l 272 1007 l 11 1007 l 364 396 l 364 0 l 597 0 l 597 399 l 949 1007 z "},"Ỳ":{"ha":961,"x_min":0,"x_max":0,"o":"m 453 1331 l 189 1331 l 404 1097 l 582 1097 z m 700 1007 l 490 617 l 272 1007 l 11 1007 l 364 396 l 364 0 l 597 0 l 597 399 l 949 1007 z "},"Ȳ":{"ha":961,"x_min":0,"x_max":0,"o":"m 218 1260 l 218 1104 l 742 1104 l 742 1260 z m 700 1007 l 490 617 l 272 1007 l 11 1007 l 364 396 l 364 0 l 597 0 l 597 399 l 949 1007 z "},"Ỹ":{"ha":961,"x_min":0,"x_max":0,"o":"m 396 1179 b 597 1094 460 1179 472 1094 b 788 1322 718 1094 788 1168 l 622 1322 b 565 1247 619 1272 606 1247 b 364 1332 501 1247 489 1332 b 174 1104 243 1332 174 1258 l 338 1104 b 396 1179 342 1154 354 1179 z m 700 1007 l 490 617 l 272 1007 l 11 1007 l 364 396 l 364 0 l 597 0 l 597 399 l 949 1007 z "},"Z":{"ha":919,"x_min":0,"x_max":0,"o":"m 857 858 l 857 1007 l 60 1007 l 60 814 l 550 814 l 53 149 l 53 0 l 867 0 l 867 193 l 358 193 z "},"Ź":{"ha":919,"x_min":0,"x_max":0,"o":"m 488 1331 l 354 1097 l 533 1097 l 751 1331 z m 857 858 l 857 1007 l 60 1007 l 60 814 l 550 814 l 53 149 l 53 0 l 867 0 l 867 193 l 358 193 z "},"Ž":{"ha":919,"x_min":0,"x_max":0,"o":"m 750 1331 l 550 1331 l 458 1228 l 365 1331 l 165 1331 l 360 1097 l 557 1097 z m 857 858 l 857 1007 l 60 1007 l 60 814 l 550 814 l 53 149 l 53 0 l 867 0 l 867 193 l 358 193 z "},"Ż":{"ha":919,"x_min":0,"x_max":0,"o":"m 458 1094 b 590 1221 529 1094 590 1149 b 458 1349 590 1294 532 1349 b 326 1221 383 1349 326 1294 b 458 1094 326 1149 383 1094 z m 857 858 l 857 1007 l 60 1007 l 60 814 l 550 814 l 53 149 l 53 0 l 867 0 l 867 193 l 358 193 z "},"a":{"ha":857,"x_min":0,"x_max":0,"o":"m 779 0 b 767 178 774 56 767 128 l 767 485 b 424 771 767 669 642 771 b 78 522 226 771 96 688 l 294 522 b 425 606 304 564 340 606 b 549 493 506 606 549 564 l 549 479 b 467 468 525 475 499 471 l 321 453 b 53 225 143 433 53 357 b 326 -19 53 76 165 -19 b 572 85 433 -19 518 14 l 579 0 z m 379 142 b 269 228 311 142 269 178 b 349 303 269 285 324 300 l 467 315 b 549 338 499 319 525 326 l 549 294 b 379 142 549 200 475 142 z "},"á":{"ha":857,"x_min":0,"x_max":0,"o":"m 456 1094 l 322 861 l 501 861 l 719 1094 z m 779 0 b 767 178 774 56 767 128 l 767 485 b 424 771 767 669 642 771 b 78 522 226 771 96 688 l 294 522 b 425 606 304 564 340 606 b 549 493 506 606 549 564 l 549 479 b 467 468 525 475 499 471 l 321 453 b 53 225 143 433 53 357 b 326 -19 53 76 165 -19 b 572 85 433 -19 518 14 l 579 0 z m 379 142 b 269 228 311 142 269 178 b 349 303 269 285 324 300 l 467 315 b 549 338 499 319 525 326 l 549 294 b 379 142 549 200 475 142 z "},"ă":{"ha":857,"x_min":0,"x_max":0,"o":"m 419 856 b 688 1088 590 856 686 936 l 510 1088 b 422 996 507 1022 476 996 b 332 1088 368 996 335 1022 l 157 1088 b 419 856 158 936 268 856 z m 779 0 b 767 178 774 56 767 128 l 767 485 b 424 771 767 669 642 771 b 78 522 226 771 96 688 l 294 522 b 425 606 304 564 340 606 b 549 493 506 606 549 564 l 549 479 b 467 468 525 475 499 471 l 321 453 b 53 225 143 433 53 357 b 326 -19 53 76 165 -19 b 572 85 433 -19 518 14 l 579 0 z m 379 142 b 269 228 311 142 269 178 b 349 303 269 285 324 300 l 467 315 b 549 338 499 319 525 326 l 549 294 b 379 142 549 200 475 142 z "},"ǎ":{"ha":857,"x_min":0,"x_max":0,"o":"m 714 1094 l 514 1094 l 422 992 l 329 1094 l 129 1094 l 324 861 l 521 861 z m 779 0 b 767 178 774 56 767 128 l 767 485 b 424 771 767 669 642 771 b 78 522 226 771 96 688 l 294 522 b 425 606 304 564 340 606 b 549 493 506 606 549 564 l 549 479 b 467 468 525 475 499 471 l 321 453 b 53 225 143 433 53 357 b 326 -19 53 76 165 -19 b 572 85 433 -19 518 14 l 579 0 z m 379 142 b 269 228 311 142 269 178 b 349 303 269 285 324 300 l 467 315 b 549 338 499 319 525 326 l 549 294 b 379 142 549 200 475 142 z "},"â":{"ha":857,"x_min":0,"x_max":0,"o":"m 514 861 l 714 861 l 521 1094 l 324 1094 l 129 861 l 329 861 l 422 963 z m 779 0 b 767 178 774 56 767 128 l 767 485 b 424 771 767 669 642 771 b 78 522 226 771 96 688 l 294 522 b 425 606 304 564 340 606 b 549 493 506 606 549 564 l 549 479 b 467 468 525 475 499 471 l 321 453 b 53 225 143 433 53 357 b 326 -19 53 76 165 -19 b 572 85 433 -19 518 14 l 579 0 z m 379 142 b 269 228 311 142 269 178 b 349 303 269 285 324 300 l 467 315 b 549 338 499 319 525 326 l 549 294 b 379 142 549 200 475 142 z "},"ä":{"ha":857,"x_min":0,"x_max":0,"o":"m 239 857 b 357 971 303 857 357 907 b 239 1086 357 1036 306 1086 b 121 971 172 1086 121 1036 b 239 857 121 907 172 857 z m 607 857 b 724 971 669 857 724 907 b 607 1086 724 1036 672 1086 b 488 971 539 1086 488 1036 b 607 857 488 907 539 857 z m 779 0 b 767 178 774 56 767 128 l 767 485 b 424 771 767 669 642 771 b 78 522 226 771 96 688 l 294 522 b 425 606 304 564 340 606 b 549 493 506 606 549 564 l 549 479 b 467 468 525 475 499 471 l 321 453 b 53 225 143 433 53 357 b 326 -19 53 76 165 -19 b 572 85 433 -19 518 14 l 579 0 z m 379 142 b 269 228 311 142 269 178 b 349 303 269 285 324 300 l 467 315 b 549 338 499 319 525 326 l 549 294 b 379 142 549 200 475 142 z "},"à":{"ha":857,"x_min":0,"x_max":0,"o":"m 393 1094 l 129 1094 l 344 861 l 522 861 z m 779 0 b 767 178 774 56 767 128 l 767 485 b 424 771 767 669 642 771 b 78 522 226 771 96 688 l 294 522 b 425 606 304 564 340 606 b 549 493 506 606 549 564 l 549 479 b 467 468 525 475 499 471 l 321 453 b 53 225 143 433 53 357 b 326 -19 53 76 165 -19 b 572 85 433 -19 518 14 l 579 0 z m 379 142 b 269 228 311 142 269 178 b 349 303 269 285 324 300 l 467 315 b 549 338 499 319 525 326 l 549 294 b 379 142 549 200 475 142 z "},"ā":{"ha":857,"x_min":0,"x_max":0,"o":"m 160 1024 l 160 868 l 683 868 l 683 1024 z m 779 0 b 767 178 774 56 767 128 l 767 485 b 424 771 767 669 642 771 b 78 522 226 771 96 688 l 294 522 b 425 606 304 564 340 606 b 549 493 506 606 549 564 l 549 479 b 467 468 525 475 499 471 l 321 453 b 53 225 143 433 53 357 b 326 -19 53 76 165 -19 b 572 85 433 -19 518 14 l 579 0 z m 379 142 b 269 228 311 142 269 178 b 349 303 269 285 324 300 l 467 315 b 549 338 499 319 525 326 l 549 294 b 379 142 549 200 475 142 z "},"ą":{"ha":857,"x_min":0,"x_max":0,"o":"m 779 0 b 767 178 774 56 767 128 l 767 485 b 424 771 767 669 642 771 b 78 522 226 771 96 688 l 294 522 b 425 606 304 564 340 606 b 549 493 506 606 549 564 l 549 479 b 467 468 525 475 499 471 l 321 453 b 53 225 143 433 53 357 b 326 -19 53 76 165 -19 b 572 85 433 -19 518 14 l 579 3 b 486 -162 519 -46 486 -100 b 651 -292 486 -237 540 -292 b 746 -282 682 -292 715 -290 l 746 -165 l 728 -165 b 661 -121 686 -165 661 -151 b 746 0 661 -74 693 -29 z m 379 142 b 269 228 311 142 269 178 b 349 303 269 285 324 300 l 467 315 b 549 338 499 319 525 326 l 549 294 b 379 142 549 200 475 142 z "},"å":{"ha":857,"x_min":0,"x_max":0,"o":"m 422 853 b 601 1026 528 853 601 925 b 422 1199 601 1126 528 1199 b 242 1026 317 1199 242 1126 b 422 853 242 925 317 853 z m 422 1093 b 489 1026 463 1093 489 1065 b 422 958 489 986 463 958 b 354 1026 383 958 354 986 b 422 1093 354 1065 383 1093 z m 779 0 b 767 178 774 56 767 128 l 767 485 b 424 771 767 669 642 771 b 78 522 226 771 96 688 l 294 522 b 425 606 304 564 340 606 b 549 493 506 606 549 564 l 549 479 b 467 468 525 475 499 471 l 321 453 b 53 225 143 433 53 357 b 326 -19 53 76 165 -19 b 572 85 433 -19 518 14 l 579 0 z m 379 142 b 269 228 311 142 269 178 b 349 303 269 285 324 300 l 467 315 b 549 338 499 319 525 326 l 549 294 b 379 142 549 200 475 142 z "},"ã":{"ha":857,"x_min":0,"x_max":0,"o":"m 338 943 b 539 858 401 943 414 858 b 729 1086 660 858 729 932 l 564 1086 b 507 1011 561 1036 547 1011 b 306 1096 443 1011 431 1096 b 115 868 185 1096 115 1022 l 279 868 b 338 943 283 918 296 943 z m 779 0 b 767 178 774 56 767 128 l 767 485 b 424 771 767 669 642 771 b 78 522 226 771 96 688 l 294 522 b 425 606 304 564 340 606 b 549 493 506 606 549 564 l 549 479 b 467 468 525 475 499 471 l 321 453 b 53 225 143 433 53 357 b 326 -19 53 76 165 -19 b 572 85 433 -19 518 14 l 579 0 z m 379 142 b 269 228 311 142 269 178 b 349 303 269 285 324 300 l 467 315 b 549 338 499 319 525 326 l 549 294 b 379 142 549 200 475 142 z "},"æ":{"ha":1354,"x_min":0,"x_max":0,"o":"m 928 769 b 681 676 832 769 746 736 b 424 771 626 739 539 771 b 78 522 226 771 96 688 l 294 522 b 425 606 304 564 340 606 b 549 493 506 606 549 564 l 549 479 b 467 468 525 475 499 471 l 321 453 b 53 225 143 433 53 357 b 326 -19 53 76 165 -19 b 640 110 471 -19 578 22 b 935 -25 708 25 811 -25 b 1294 213 1115 -25 1246 71 l 1075 213 b 933 143 1049 169 999 143 b 756 306 839 143 769 207 l 1301 306 b 928 769 1336 569 1186 769 z m 928 601 b 1093 453 1026 601 1082 542 l 756 453 b 928 601 771 540 836 601 z m 379 142 b 269 229 311 142 269 178 b 349 303 269 286 324 300 l 467 315 b 549 338 499 319 525 326 l 549 294 b 379 142 549 200 475 142 z "},"b":{"ha":943,"x_min":0,"x_max":0,"o":"m 542 768 b 315 674 446 768 369 733 l 315 1007 l 93 1007 l 93 0 l 308 0 l 308 81 b 540 -22 364 15 442 -22 b 894 376 757 -22 894 147 b 542 768 894 618 742 768 z m 490 153 b 315 372 379 153 315 235 b 490 592 315 511 379 592 b 667 372 603 592 667 511 b 490 153 667 235 603 153 z "},"c":{"ha":857,"x_min":0,"x_max":0,"o":"m 451 -25 b 814 238 631 -25 774 79 l 601 238 b 451 153 575 185 525 153 b 276 372 340 153 276 233 b 451 592 276 511 340 592 b 604 499 528 592 578 557 l 814 499 b 451 771 775 661 632 771 b 47 372 211 771 47 603 b 451 -25 47 143 211 -25 z "},"ć":{"ha":857,"x_min":0,"x_max":0,"o":"m 522 861 l 740 1094 l 476 1094 l 343 861 z m 451 -25 b 814 238 631 -25 774 79 l 601 238 b 451 153 575 185 525 153 b 276 372 340 153 276 233 b 451 592 276 511 340 592 b 604 499 528 592 578 557 l 814 499 b 451 771 775 661 632 771 b 47 372 211 771 47 603 b 451 -25 47 143 211 -25 z "},"č":{"ha":857,"x_min":0,"x_max":0,"o":"m 735 1094 l 535 1094 l 443 992 l 350 1094 l 150 1094 l 344 861 l 542 861 z m 451 153 b 276 372 340 153 276 233 b 451 592 276 511 340 592 b 604 499 528 592 578 557 l 814 499 b 451 771 775 661 632 771 b 47 372 211 771 47 603 b 451 -25 47 143 211 -25 b 814 238 631 -25 774 79 l 601 238 b 451 153 575 185 525 153 z "},"ç":{"ha":857,"x_min":0,"x_max":0,"o":"m 451 153 b 276 372 340 153 276 233 b 451 592 276 511 340 592 b 604 499 528 592 578 557 l 814 499 b 451 771 775 661 632 771 b 47 372 211 771 47 603 b 382 -19 47 167 181 10 l 342 -78 l 369 -132 l 392 -132 b 435 -161 424 -132 435 -142 b 382 -187 435 -181 415 -187 b 321 -185 360 -187 347 -187 l 321 -282 b 406 -289 350 -287 378 -289 b 588 -171 536 -289 588 -246 b 467 -68 588 -111 538 -74 l 501 -22 b 814 238 657 -4 778 94 l 601 238 b 451 153 575 185 525 153 z "},"ĉ":{"ha":857,"x_min":0,"x_max":0,"o":"m 535 861 l 735 861 l 542 1094 l 344 1094 l 150 861 l 350 861 l 443 963 z m 451 153 b 276 372 340 153 276 233 b 451 592 276 511 340 592 b 604 499 528 592 578 557 l 814 499 b 451 771 775 661 632 771 b 47 372 211 771 47 603 b 451 -25 47 143 211 -25 b 814 238 631 -25 774 79 l 601 238 b 451 153 575 185 525 153 z "},"ċ":{"ha":857,"x_min":0,"x_max":0,"o":"m 442 858 b 574 985 513 858 574 913 b 442 1113 574 1058 515 1113 b 310 985 367 1113 310 1058 b 442 858 310 913 367 858 z m 451 -25 b 814 238 631 -25 774 79 l 601 238 b 451 153 575 185 525 153 b 276 372 340 153 276 233 b 451 592 276 511 340 592 b 604 499 528 592 578 557 l 814 499 b 451 771 775 661 632 771 b 47 372 211 771 47 603 b 451 -25 47 143 211 -25 z "},"d":{"ha":943,"x_min":0,"x_max":0,"o":"m 628 674 b 401 768 574 733 497 768 b 47 376 201 768 47 618 b 403 -22 47 147 186 -22 b 635 81 501 -22 579 15 l 635 0 l 850 0 l 850 1007 l 628 1007 z m 451 153 b 276 372 340 153 276 235 b 451 592 276 511 340 592 b 628 372 564 592 628 511 b 451 153 628 235 564 153 z "},"ð":{"ha":883,"x_min":0,"x_max":0,"o":"m 686 861 l 686 1021 l 497 936 l 435 1007 l 143 1007 b 308 851 199 960 254 908 l 182 794 l 182 635 l 411 738 b 519 596 449 693 485 646 b 393 613 483 607 440 613 b 47 301 215 613 47 497 b 442 -25 47 104 224 -25 b 836 335 660 -25 836 110 b 596 821 836 472 771 607 z m 443 146 b 276 303 343 146 276 208 b 442 457 276 394 342 457 b 608 303 542 457 608 394 b 443 146 608 211 544 146 z "},"ď":{"ha":943,"x_min":0,"x_max":0,"o":"m 628 674 b 401 768 574 733 497 768 b 47 376 201 768 47 618 b 403 -22 47 147 186 -22 b 635 81 501 -22 579 15 l 635 0 l 850 0 l 850 1007 l 628 1007 z m 908 678 l 1051 678 l 1108 1007 l 915 1007 z m 451 153 b 276 372 340 153 276 235 b 451 592 276 511 340 592 b 628 372 564 592 628 511 b 451 153 628 235 564 153 z "},"đ":{"ha":943,"x_min":0,"x_max":0,"o":"m 850 949 l 850 1007 l 628 1007 l 628 949 l 475 949 l 475 793 l 628 793 l 628 674 b 401 768 574 733 497 768 b 47 376 201 768 47 618 b 403 -22 47 147 186 -22 b 635 81 501 -22 579 15 l 635 0 l 850 0 l 850 793 l 935 793 l 935 949 z m 451 153 b 276 372 340 153 276 235 b 451 592 276 511 340 592 b 628 372 564 592 628 511 b 451 153 628 235 564 153 z "},"e":{"ha":868,"x_min":0,"x_max":0,"o":"m 442 769 b 47 367 219 769 47 607 b 449 -25 47 138 214 -25 b 808 213 629 -25 760 71 l 589 213 b 447 143 563 169 513 143 b 269 306 353 143 283 207 l 815 306 b 442 769 850 569 700 769 z m 442 601 b 607 453 540 601 596 542 l 269 453 b 442 601 285 540 350 601 z "},"é":{"ha":868,"x_min":0,"x_max":0,"o":"m 469 1094 l 336 861 l 515 861 l 733 1094 z m 442 769 b 47 367 219 769 47 607 b 449 -25 47 138 214 -25 b 808 213 629 -25 760 71 l 589 213 b 447 143 563 169 513 143 b 269 306 353 143 283 207 l 815 306 b 442 769 850 569 700 769 z m 442 601 b 607 453 540 601 596 542 l 269 453 b 442 601 285 540 350 601 z "},"ĕ":{"ha":868,"x_min":0,"x_max":0,"o":"m 433 856 b 701 1088 604 856 700 936 l 524 1088 b 436 996 521 1022 490 996 b 346 1088 382 996 349 1022 l 171 1088 b 433 856 172 936 282 856 z m 442 769 b 47 367 219 769 47 607 b 449 -25 47 138 214 -25 b 808 213 629 -25 760 71 l 589 213 b 447 143 563 169 513 143 b 269 306 353 143 283 207 l 815 306 b 442 769 850 569 700 769 z m 442 601 b 607 453 540 601 596 542 l 269 453 b 442 601 285 540 350 601 z "},"ě":{"ha":868,"x_min":0,"x_max":0,"o":"m 728 1094 l 528 1094 l 436 992 l 343 1094 l 143 1094 l 338 861 l 535 861 z m 442 769 b 47 367 219 769 47 607 b 449 -25 47 138 214 -25 b 808 213 629 -25 760 71 l 589 213 b 447 143 563 169 513 143 b 269 306 353 143 283 207 l 815 306 b 442 769 850 569 700 769 z m 442 601 b 607 453 540 601 596 542 l 269 453 b 442 601 285 540 350 601 z "},"ê":{"ha":868,"x_min":0,"x_max":0,"o":"m 528 861 l 728 861 l 535 1094 l 338 1094 l 143 861 l 343 861 l 436 963 z m 442 769 b 47 367 219 769 47 607 b 449 -25 47 138 214 -25 b 808 213 629 -25 760 71 l 589 213 b 447 143 563 169 513 143 b 269 306 353 143 283 207 l 815 306 b 442 769 850 569 700 769 z m 442 601 b 607 453 540 601 596 542 l 269 453 b 442 601 285 540 350 601 z "},"ë":{"ha":868,"x_min":0,"x_max":0,"o":"m 253 857 b 371 971 317 857 371 907 b 253 1086 371 1036 319 1086 b 135 971 186 1086 135 1036 b 253 857 135 907 186 857 z m 621 857 b 738 971 683 857 738 907 b 621 1086 738 1036 686 1086 b 501 971 553 1086 501 1036 b 621 857 501 907 553 857 z m 442 769 b 47 367 219 769 47 607 b 449 -25 47 138 214 -25 b 808 213 629 -25 760 71 l 589 213 b 447 143 563 169 513 143 b 269 306 353 143 283 207 l 815 306 b 442 769 850 569 700 769 z m 442 601 b 607 453 540 601 596 542 l 269 453 b 442 601 285 540 350 601 z "},"ė":{"ha":868,"x_min":0,"x_max":0,"o":"m 436 858 b 568 985 507 858 568 913 b 436 1113 568 1058 510 1113 b 304 985 361 1113 304 1058 b 436 858 304 913 361 858 z m 442 769 b 47 367 219 769 47 607 b 449 -25 47 138 214 -25 b 808 213 629 -25 760 71 l 589 213 b 447 143 563 169 513 143 b 269 306 353 143 283 207 l 815 306 b 442 769 850 569 700 769 z m 442 601 b 607 453 540 601 596 542 l 269 453 b 442 601 285 540 350 601 z "},"è":{"ha":868,"x_min":0,"x_max":0,"o":"m 407 1094 l 143 1094 l 358 861 l 536 861 z m 442 769 b 47 367 219 769 47 607 b 449 -25 47 138 214 -25 b 808 213 629 -25 760 71 l 589 213 b 447 143 563 169 513 143 b 269 306 353 143 283 207 l 815 306 b 442 769 850 569 700 769 z m 442 601 b 607 453 540 601 596 542 l 269 453 b 442 601 285 540 350 601 z "},"ē":{"ha":868,"x_min":0,"x_max":0,"o":"m 174 1024 l 174 868 l 697 868 l 697 1024 z m 442 769 b 47 367 219 769 47 607 b 449 -25 47 138 214 -25 b 808 213 629 -25 760 71 l 589 213 b 447 143 563 169 513 143 b 269 306 353 143 283 207 l 815 306 b 442 769 850 569 700 769 z m 442 601 b 607 453 540 601 596 542 l 269 453 b 442 601 285 540 350 601 z "},"ę":{"ha":868,"x_min":0,"x_max":0,"o":"m 442 769 b 47 367 219 769 47 607 b 386 -21 47 158 185 6 b 321 -162 344 -64 321 -111 b 486 -292 321 -237 375 -292 b 581 -282 517 -292 550 -290 l 581 -165 l 563 -165 b 496 -121 521 -165 496 -151 b 563 -11 496 -79 521 -40 b 808 213 683 21 771 103 l 589 213 b 447 143 563 169 513 143 b 269 306 353 143 283 207 l 815 306 b 442 769 850 569 700 769 z m 442 601 b 607 453 540 601 596 542 l 269 453 b 442 601 285 540 350 601 z "},"ẽ":{"ha":868,"x_min":0,"x_max":0,"o":"m 351 943 b 553 858 415 943 428 858 b 743 1086 674 858 743 932 l 578 1086 b 521 1011 575 1036 561 1011 b 319 1096 457 1011 444 1096 b 129 868 199 1096 129 1022 l 293 868 b 351 943 297 918 310 943 z m 442 769 b 47 367 219 769 47 607 b 449 -25 47 138 214 -25 b 808 213 629 -25 760 71 l 589 213 b 447 143 563 169 513 143 b 269 306 353 143 283 207 l 815 306 b 442 769 850 569 700 769 z m 442 601 b 607 453 540 601 596 542 l 269 453 b 442 601 285 540 350 601 z "},"f":{"ha":608,"x_min":0,"x_max":0,"o":"m 588 829 l 588 1007 l 428 1007 b 164 782 225 1007 164 935 l 164 746 l 22 746 l 22 568 l 164 568 l 164 0 l 386 0 l 386 568 l 572 568 l 572 746 l 386 746 l 386 756 b 463 829 386 819 404 829 z "},"g":{"ha":932,"x_min":0,"x_max":0,"o":"m 624 674 b 396 768 569 733 493 768 b 47 401 200 768 47 628 b 397 31 47 188 183 31 b 617 117 489 31 563 63 l 617 54 b 451 -108 617 -42 561 -108 b 294 -22 372 -108 314 -81 l 81 -22 b 454 -275 110 -194 260 -275 b 839 74 696 -275 839 -139 l 839 746 l 624 746 z m 442 194 b 265 399 329 194 265 269 b 442 603 265 528 329 603 b 617 399 553 603 617 528 b 442 194 617 269 553 194 z "},"ğ":{"ha":932,"x_min":0,"x_max":0,"o":"m 438 856 b 706 1088 608 856 704 936 l 528 1088 b 440 996 525 1022 494 996 b 350 1088 386 996 353 1022 l 175 1088 b 438 856 176 936 286 856 z m 624 674 b 396 768 569 733 493 768 b 47 401 200 768 47 628 b 397 31 47 188 183 31 b 617 117 489 31 563 63 l 617 54 b 451 -108 617 -42 561 -108 b 294 -22 372 -108 314 -81 l 81 -22 b 454 -275 110 -194 260 -275 b 839 74 696 -275 839 -139 l 839 746 l 624 746 z m 442 194 b 265 399 329 194 265 269 b 442 603 265 528 329 603 b 617 399 553 603 617 528 b 442 194 617 269 553 194 z "},"ǧ":{"ha":932,"x_min":0,"x_max":0,"o":"m 732 1094 l 532 1094 l 440 992 l 347 1094 l 147 1094 l 342 861 l 539 861 z m 624 674 b 396 768 569 733 493 768 b 47 401 200 768 47 628 b 397 31 47 188 183 31 b 617 117 489 31 563 63 l 617 54 b 451 -108 617 -42 561 -108 b 294 -22 372 -108 314 -81 l 81 -22 b 454 -275 110 -194 260 -275 b 839 74 696 -275 839 -139 l 839 746 l 624 746 z m 442 194 b 265 399 329 194 265 269 b 442 603 265 528 329 603 b 617 399 553 603 617 528 b 442 194 617 269 553 194 z "},"ĝ":{"ha":932,"x_min":0,"x_max":0,"o":"m 532 861 l 732 861 l 539 1094 l 342 1094 l 147 861 l 347 861 l 440 963 z m 624 674 b 396 768 569 733 493 768 b 47 401 200 768 47 628 b 397 31 47 188 183 31 b 617 117 489 31 563 63 l 617 54 b 451 -108 617 -42 561 -108 b 294 -22 372 -108 314 -81 l 81 -22 b 454 -275 110 -194 260 -275 b 839 74 696 -275 839 -139 l 839 746 l 624 746 z m 442 194 b 265 399 329 194 265 269 b 442 603 265 528 329 603 b 617 399 553 603 617 528 b 442 194 617 269 553 194 z "},"ģ":{"ha":932,"x_min":0,"x_max":0,"o":"m 411 1094 l 328 861 l 532 861 l 568 1094 z m 624 674 b 396 768 569 733 493 768 b 47 401 200 768 47 628 b 397 31 47 188 183 31 b 617 117 489 31 563 63 l 617 54 b 451 -108 617 -42 561 -108 b 294 -22 372 -108 314 -81 l 81 -22 b 454 -275 110 -194 260 -275 b 839 74 696 -275 839 -139 l 839 746 l 624 746 z m 442 194 b 265 399 329 194 265 269 b 442 603 265 528 329 603 b 617 399 553 603 617 528 b 442 194 617 269 553 194 z "},"ġ":{"ha":932,"x_min":0,"x_max":0,"o":"m 440 858 b 572 985 511 858 572 913 b 440 1113 572 1058 514 1113 b 308 985 365 1113 308 1058 b 440 858 308 913 365 858 z m 624 674 b 396 768 569 733 493 768 b 47 401 200 768 47 628 b 397 31 47 188 183 31 b 617 117 489 31 563 63 l 617 54 b 451 -108 617 -42 561 -108 b 294 -22 372 -108 314 -81 l 81 -22 b 454 -275 110 -194 260 -275 b 839 74 696 -275 839 -139 l 839 746 l 624 746 z m 442 194 b 265 399 329 194 265 269 b 442 603 265 528 329 603 b 617 399 553 603 617 528 b 442 194 617 269 553 194 z "},"h":{"ha":894,"x_min":0,"x_max":0,"o":"m 524 771 b 315 674 436 771 365 738 l 315 1007 l 93 1007 l 93 0 l 315 0 l 315 414 b 461 593 315 531 376 593 b 588 449 543 593 588 532 l 588 0 l 810 0 l 810 478 b 524 771 810 663 699 771 z "},"ħ":{"ha":894,"x_min":0,"x_max":0,"o":"m 524 771 b 315 674 436 771 365 738 l 315 793 l 468 793 l 468 949 l 315 949 l 315 1007 l 93 1007 l 93 949 l 8 949 l 8 793 l 93 793 l 93 0 l 315 0 l 315 414 b 461 593 315 531 376 593 b 588 449 543 593 588 532 l 588 0 l 810 0 l 810 478 b 524 771 810 663 699 771 z "},"ĥ":{"ha":894,"x_min":0,"x_max":0,"o":"m 296 1097 l 496 1097 l 303 1331 l 106 1331 l -89 1097 l 111 1097 l 204 1199 z m 524 771 b 315 674 436 771 365 738 l 315 1007 l 93 1007 l 93 0 l 315 0 l 315 414 b 461 593 315 531 376 593 b 588 449 543 593 588 532 l 588 0 l 810 0 l 810 478 b 524 771 810 663 699 771 z "},"i":{"ha":408,"x_min":0,"x_max":0,"o":"m 204 858 b 336 985 275 858 336 913 b 204 1113 336 1058 278 1113 b 72 985 129 1113 72 1058 b 204 858 72 913 129 858 z m 315 0 l 315 746 l 93 746 l 93 0 z "},"ı":{"ha":408,"x_min":0,"x_max":0,"o":"m 315 0 l 315 746 l 93 746 l 93 0 z "},"í":{"ha":408,"x_min":0,"x_max":0,"o":"m 283 861 l 501 1094 l 238 1094 l 104 861 z m 315 0 l 315 746 l 93 746 l 93 0 z "},"ĭ":{"ha":408,"x_min":0,"x_max":0,"o":"m 201 856 b 469 1088 372 856 468 936 l 292 1088 b 204 996 289 1022 258 996 b 114 1088 150 996 117 1022 l -61 1088 b 201 856 -60 936 50 856 z m 315 0 l 315 746 l 93 746 l 93 0 z "},"ǐ":{"ha":408,"x_min":0,"x_max":0,"o":"m 496 1094 l 296 1094 l 204 992 l 111 1094 l -89 1094 l 106 861 l 303 861 z m 315 0 l 315 746 l 93 746 l 93 0 z "},"î":{"ha":408,"x_min":0,"x_max":0,"o":"m 296 861 l 496 861 l 303 1094 l 106 1094 l -89 861 l 111 861 l 204 963 z m 315 0 l 315 746 l 93 746 l 93 0 z "},"ï":{"ha":408,"x_min":0,"x_max":0,"o":"m 19 857 b 138 971 83 857 138 907 b 19 1086 138 1036 86 1086 b -99 971 -47 1086 -99 1036 b 19 857 -99 907 -47 857 z m 388 857 b 504 971 450 857 504 907 b 388 1086 504 1036 453 1086 b 268 971 319 1086 268 1036 b 388 857 268 907 319 857 z m 315 0 l 315 746 l 93 746 l 93 0 z "},"ị":{"ha":408,"x_min":0,"x_max":0,"o":"m 204 858 b 335 985 275 858 335 913 b 204 1113 335 1058 278 1113 b 72 985 129 1113 72 1058 b 204 858 72 913 129 858 z m 315 0 l 315 746 l 93 746 l 93 0 z m 204 -350 b 336 -224 275 -350 336 -296 b 204 -96 336 -150 278 -96 b 72 -224 129 -96 72 -150 b 204 -350 72 -296 129 -350 z "},"ì":{"ha":408,"x_min":0,"x_max":0,"o":"m 304 861 l 175 1094 l -89 1094 l 126 861 z m 315 0 l 315 746 l 93 746 l 93 0 z "},"ĳ":{"ha":822,"x_min":0,"x_max":0,"o":"m 204 858 b 335 985 275 858 335 913 b 204 1113 335 1058 278 1113 b 72 985 129 1113 72 1058 b 204 858 72 913 129 858 z m 617 858 b 747 985 688 858 747 913 b 617 1113 747 1058 690 1113 b 483 985 542 1113 483 1058 b 617 858 483 913 542 858 z m 315 0 l 315 746 l 93 746 l 93 0 z m 471 -271 b 729 -39 669 -271 729 -204 l 729 746 l 507 746 l 507 -24 b 433 -83 507 -81 489 -83 l 343 -83 l 343 -271 z "},"ī":{"ha":408,"x_min":0,"x_max":0,"o":"m 440 868 l 440 1024 l -32 1024 l -32 868 z m 315 0 l 315 746 l 93 746 l 93 0 z "},"į":{"ha":408,"x_min":0,"x_max":0,"o":"m 204 858 b 336 985 275 858 336 913 b 204 1113 336 1058 278 1113 b 72 985 129 1113 72 1058 b 204 858 72 913 129 858 z m 143 0 b 54 -162 86 -47 54 -101 b 219 -292 54 -237 108 -292 b 314 -282 250 -292 283 -290 l 314 -165 l 296 -165 b 229 -121 254 -165 229 -151 b 314 0 229 -74 261 -29 l 315 0 l 315 746 l 93 746 l 93 0 z "},"ĩ":{"ha":408,"x_min":0,"x_max":0,"o":"m 321 858 b 511 1086 442 858 511 932 l 346 1086 b 289 1011 343 1036 329 1011 b 88 1096 225 1011 213 1096 b -103 868 -33 1096 -103 1022 l 61 868 b 119 943 65 918 78 943 b 321 858 183 943 196 858 z m 315 0 l 315 746 l 93 746 l 93 0 z "},"j":{"ha":414,"x_min":0,"x_max":0,"o":"m 208 858 b 340 985 279 858 340 913 b 208 1113 340 1058 282 1113 b 76 985 133 1113 76 1058 b 208 858 76 913 133 858 z m 63 -271 b 321 -39 261 -271 321 -204 l 321 746 l 99 746 l 99 -24 b 25 -83 99 -81 81 -83 l -65 -83 l -65 -271 z "},"ȷ":{"ha":414,"x_min":0,"x_max":0,"o":"m 63 -271 b 321 -39 261 -271 321 -204 l 321 746 l 99 746 l 99 -24 b 25 -83 99 -81 81 -83 l -65 -83 l -65 -271 z "},"ĵ":{"ha":414,"x_min":0,"x_max":0,"o":"m 300 861 l 500 861 l 307 1094 l 110 1094 l -85 861 l 115 861 l 208 963 z m 99 -24 b 25 -83 99 -81 81 -83 l -65 -83 l -65 -271 l 63 -271 b 321 -39 261 -271 321 -204 l 321 746 l 99 746 z "},"k":{"ha":843,"x_min":0,"x_max":0,"o":"m 829 0 l 532 451 l 803 746 l 549 746 l 315 494 l 315 1007 l 93 1007 l 93 0 l 315 0 l 315 232 l 383 304 l 575 0 z "},"ķ":{"ha":843,"x_min":0,"x_max":0,"o":"m 803 746 l 549 746 l 315 494 l 315 1007 l 93 1007 l 93 0 l 315 0 l 315 232 l 383 304 l 575 0 l 829 0 l 532 451 z m 440 -308 l 524 -83 l 318 -83 l 282 -308 z "},"l":{"ha":408,"x_min":0,"x_max":0,"o":"m 315 0 l 315 1007 l 93 1007 l 93 0 z "},"ĺ":{"ha":408,"x_min":0,"x_max":0,"o":"m 283 1122 l 501 1356 l 238 1356 l 104 1122 z m 315 0 l 315 1007 l 93 1007 l 93 0 z "},"ľ":{"ha":408,"x_min":0,"x_max":0,"o":"m 315 0 l 315 1007 l 93 1007 l 93 0 z m 517 678 l 574 1007 l 381 1007 l 374 678 z "},"ļ":{"ha":408,"x_min":0,"x_max":0,"o":"m 315 0 l 315 1007 l 93 1007 l 93 0 z m 224 -308 l 307 -83 l 101 -83 l 65 -308 z "},"ł":{"ha":408,"x_min":0,"x_max":0,"o":"m 315 669 l 315 1007 l 93 1007 l 93 553 l 15 501 l 15 288 l 93 340 l 93 0 l 315 0 l 315 457 l 393 510 l 393 722 z "},"m":{"ha":1365,"x_min":0,"x_max":0,"o":"m 999 771 b 750 656 890 771 807 732 b 515 771 710 717 639 771 b 308 667 428 771 357 736 l 308 746 l 93 746 l 93 0 l 315 0 l 315 414 b 456 593 315 531 375 593 b 576 449 532 593 576 532 l 576 0 l 799 0 l 799 414 b 939 593 799 531 858 593 b 1060 449 1015 593 1060 532 l 1060 0 l 1282 0 l 1282 478 b 999 771 1282 663 1171 771 z "},"n":{"ha":894,"x_min":0,"x_max":0,"o":"m 524 771 b 308 664 432 771 358 735 l 308 746 l 93 746 l 93 0 l 315 0 l 315 414 b 461 593 315 531 376 593 b 588 449 543 593 588 532 l 588 0 l 810 0 l 810 478 b 524 771 810 663 699 771 z "},"ń":{"ha":894,"x_min":0,"x_max":0,"o":"m 481 1094 l 347 861 l 526 861 l 744 1094 z m 524 771 b 308 664 432 771 358 735 l 308 746 l 93 746 l 93 0 l 315 0 l 315 414 b 461 593 315 531 376 593 b 588 449 543 593 588 532 l 588 0 l 810 0 l 810 478 b 524 771 810 663 699 771 z "},"ň":{"ha":894,"x_min":0,"x_max":0,"o":"m 739 1094 l 539 1094 l 447 992 l 354 1094 l 154 1094 l 349 861 l 546 861 z m 524 771 b 308 664 432 771 358 735 l 308 746 l 93 746 l 93 0 l 315 0 l 315 414 b 461 593 315 531 376 593 b 588 449 543 593 588 532 l 588 0 l 810 0 l 810 478 b 524 771 810 663 699 771 z "},"ņ":{"ha":894,"x_min":0,"x_max":0,"o":"m 524 771 b 308 664 432 771 358 735 l 308 746 l 93 746 l 93 0 l 315 0 l 315 414 b 461 593 315 531 376 593 b 588 449 543 593 588 532 l 588 0 l 810 0 l 810 478 b 524 771 810 663 699 771 z m 467 -308 l 550 -83 l 344 -83 l 308 -308 z "},"ñ":{"ha":894,"x_min":0,"x_max":0,"o":"m 363 943 b 564 858 426 943 439 858 b 754 1086 685 858 754 932 l 589 1086 b 532 1011 586 1036 572 1011 b 331 1096 468 1011 456 1096 b 140 868 210 1096 140 1022 l 304 868 b 363 943 308 918 321 943 z m 524 771 b 308 664 432 771 358 735 l 308 746 l 93 746 l 93 0 l 315 0 l 315 414 b 461 593 315 531 376 593 b 588 449 543 593 588 532 l 588 0 l 810 0 l 810 478 b 524 771 810 663 699 771 z "},"o":{"ha":904,"x_min":0,"x_max":0,"o":"m 451 -25 b 856 372 692 -25 856 143 b 451 771 856 603 692 771 b 47 372 211 771 47 603 b 451 -25 47 143 211 -25 z m 451 153 b 276 372 340 153 276 233 b 451 592 276 511 340 592 b 628 372 564 592 628 511 b 451 153 628 233 564 153 z "},"ó":{"ha":904,"x_min":0,"x_max":0,"o":"m 531 861 l 749 1094 l 485 1094 l 351 861 z m 451 -25 b 856 372 692 -25 856 143 b 451 771 856 603 692 771 b 47 372 211 771 47 603 b 451 -25 47 143 211 -25 z m 451 153 b 276 372 340 153 276 233 b 451 592 276 511 340 592 b 628 372 564 592 628 511 b 451 153 628 233 564 153 z "},"ŏ":{"ha":904,"x_min":0,"x_max":0,"o":"m 449 856 b 717 1088 619 856 715 936 l 539 1088 b 451 996 536 1022 506 996 b 361 1088 397 996 364 1022 l 186 1088 b 449 856 188 936 297 856 z m 451 -25 b 856 372 692 -25 856 143 b 451 771 856 603 692 771 b 47 372 211 771 47 603 b 451 -25 47 143 211 -25 z m 451 153 b 276 372 340 153 276 233 b 451 592 276 511 340 592 b 628 372 564 592 628 511 b 451 153 628 233 564 153 z "},"ǒ":{"ha":904,"x_min":0,"x_max":0,"o":"m 743 1094 l 543 1094 l 451 992 l 358 1094 l 158 1094 l 353 861 l 550 861 z m 451 771 b 47 372 211 771 47 603 b 451 -25 47 143 211 -25 b 856 372 692 -25 856 143 b 451 771 856 603 692 771 z m 451 153 b 276 372 340 153 276 233 b 451 592 276 511 340 592 b 628 372 564 592 628 511 b 451 153 628 233 564 153 z "},"ô":{"ha":904,"x_min":0,"x_max":0,"o":"m 543 861 l 743 861 l 550 1094 l 353 1094 l 158 861 l 358 861 l 451 963 z m 451 771 b 47 372 211 771 47 603 b 451 -25 47 143 211 -25 b 856 372 692 -25 856 143 b 451 771 856 603 692 771 z m 451 153 b 276 372 340 153 276 233 b 451 592 276 511 340 592 b 628 372 564 592 628 511 b 451 153 628 233 564 153 z "},"ö":{"ha":904,"x_min":0,"x_max":0,"o":"m 268 857 b 386 971 332 857 386 907 b 268 1086 386 1036 335 1086 b 150 971 201 1086 150 1036 b 268 857 150 907 201 857 z m 636 857 b 753 971 699 857 753 907 b 636 1086 753 1036 701 1086 b 517 971 568 1086 517 1036 b 636 857 517 907 568 857 z m 451 -25 b 856 372 692 -25 856 143 b 451 771 856 603 692 771 b 47 372 211 771 47 603 b 451 -25 47 143 211 -25 z m 451 153 b 276 372 340 153 276 233 b 451 592 276 511 340 592 b 628 372 564 592 628 511 b 451 153 628 233 564 153 z "},"ọ":{"ha":904,"x_min":0,"x_max":0,"o":"m 451 -25 b 856 372 692 -25 856 143 b 451 771 856 603 692 771 b 47 372 211 771 47 603 b 451 -25 47 143 211 -25 z m 451 153 b 276 372 340 153 276 233 b 451 592 276 511 340 592 b 628 372 564 592 628 511 b 451 153 628 233 564 153 z m 451 -350 b 583 -224 522 -350 583 -296 b 451 -96 583 -150 525 -96 b 319 -224 376 -96 319 -150 b 451 -350 319 -296 376 -350 z "},"ò":{"ha":904,"x_min":0,"x_max":0,"o":"m 551 861 l 422 1094 l 158 1094 l 374 861 z m 451 -25 b 856 372 692 -25 856 143 b 451 771 856 603 692 771 b 47 372 211 771 47 603 b 451 -25 47 143 211 -25 z m 451 153 b 276 372 340 153 276 233 b 451 592 276 511 340 592 b 628 372 564 592 628 511 b 451 153 628 233 564 153 z "},"ő":{"ha":904,"x_min":0,"x_max":0,"o":"m 399 861 l 521 1094 l 313 1094 l 243 861 z m 676 861 l 822 1094 l 615 1094 l 521 861 z m 451 -25 b 856 372 692 -25 856 143 b 451 771 856 603 692 771 b 47 372 211 771 47 603 b 451 -25 47 143 211 -25 z m 451 153 b 276 372 340 153 276 233 b 451 592 276 511 340 592 b 628 372 564 592 628 511 b 451 153 628 233 564 153 z "},"ō":{"ha":904,"x_min":0,"x_max":0,"o":"m 713 868 l 713 1024 l 189 1024 l 189 868 z m 451 -25 b 856 372 692 -25 856 143 b 451 771 856 603 692 771 b 47 372 211 771 47 603 b 451 -25 47 143 211 -25 z m 451 153 b 276 372 340 153 276 233 b 451 592 276 511 340 592 b 628 372 564 592 628 511 b 451 153 628 233 564 153 z "},"ø":{"ha":904,"x_min":0,"x_max":0,"o":"m 678 746 l 657 722 b 451 771 599 753 529 771 b 47 372 211 771 47 603 b 136 114 47 271 79 182 l 38 0 l 224 0 l 244 24 b 451 -25 304 -7 374 -25 b 856 372 692 -25 856 143 b 767 633 856 475 824 564 l 864 746 z m 451 592 b 533 574 483 592 511 585 l 288 282 b 276 372 281 308 276 339 b 451 592 276 511 340 592 z m 451 153 b 367 172 419 153 390 160 l 615 465 b 628 372 624 439 628 407 b 451 153 628 233 564 153 z "},"õ":{"ha":904,"x_min":0,"x_max":0,"o":"m 568 858 b 758 1086 689 858 758 932 l 593 1086 b 536 1011 590 1036 576 1011 b 335 1096 472 1011 460 1096 b 144 868 214 1096 144 1022 l 308 868 b 367 943 313 918 325 943 b 568 858 431 943 443 858 z m 451 -25 b 856 372 692 -25 856 143 b 451 771 856 603 692 771 b 47 372 211 771 47 603 b 451 -25 47 143 211 -25 z m 451 153 b 276 372 340 153 276 233 b 451 592 276 511 340 592 b 628 372 564 592 628 511 b 451 153 628 233 564 153 z "},"œ":{"ha":1426,"x_min":0,"x_max":0,"o":"m 1000 769 b 726 650 890 769 794 725 b 451 771 661 725 567 771 b 47 372 211 771 47 603 b 451 -25 47 143 211 -25 b 725 94 565 -25 660 19 b 1007 -25 793 19 892 -25 b 1367 213 1188 -25 1318 71 l 1147 213 b 1006 143 1121 169 1071 143 b 828 306 911 143 842 207 l 1374 306 b 1000 769 1408 569 1258 769 z m 1000 601 b 1165 453 1099 601 1154 542 l 828 453 b 1000 601 843 540 908 601 z m 451 153 b 276 372 340 153 276 233 b 451 592 276 511 340 592 b 628 372 564 592 628 511 b 451 153 628 233 564 153 z "},"p":{"ha":943,"x_min":0,"x_max":0,"o":"m 542 768 b 308 665 442 768 363 731 l 308 746 l 93 746 l 93 -250 l 315 -250 l 315 72 b 540 -22 369 13 446 -22 b 894 376 757 -22 894 147 b 542 768 894 618 742 768 z m 490 153 b 315 372 379 153 315 235 b 490 592 315 511 379 592 b 667 372 603 592 667 511 b 490 153 667 235 603 153 z "},"þ":{"ha":943,"x_min":0,"x_max":0,"o":"m 542 768 b 315 674 446 768 369 733 l 315 1007 l 93 1007 l 93 -250 l 315 -250 l 315 72 b 540 -22 369 13 446 -22 b 894 376 757 -22 894 147 b 542 768 894 618 742 768 z m 490 153 b 315 372 379 153 315 235 b 490 592 315 511 379 592 b 667 372 603 592 667 511 b 490 153 667 235 603 153 z "},"q":{"ha":943,"x_min":0,"x_max":0,"o":"m 635 665 b 401 768 581 731 501 768 b 47 376 201 768 47 618 b 403 -22 47 147 186 -22 b 628 72 497 -22 574 13 l 628 -250 l 850 -250 l 850 746 l 635 746 z m 451 153 b 276 372 340 153 276 235 b 451 592 276 511 340 592 b 628 372 564 592 628 511 b 451 153 628 235 564 153 z "},"r":{"ha":592,"x_min":0,"x_max":0,"o":"m 529 757 b 308 650 432 757 357 719 l 308 746 l 93 746 l 93 0 l 315 0 l 315 378 b 515 556 315 515 371 556 l 569 556 l 569 754 b 529 757 557 756 543 757 z "},"ŕ":{"ha":592,"x_min":0,"x_max":0,"o":"m 338 1094 l 204 861 l 383 861 l 601 1094 z m 308 746 l 93 746 l 93 0 l 315 0 l 315 378 b 515 556 315 515 371 556 l 569 556 l 569 754 b 529 757 557 756 543 757 b 308 650 432 757 357 719 z "},"ř":{"ha":592,"x_min":0,"x_max":0,"o":"m 596 1094 l 396 1094 l 304 992 l 211 1094 l 11 1094 l 206 861 l 403 861 z m 308 746 l 93 746 l 93 0 l 315 0 l 315 378 b 515 556 315 515 371 556 l 569 556 l 569 754 b 529 757 557 756 543 757 b 308 650 432 757 357 719 z "},"ŗ":{"ha":592,"x_min":0,"x_max":0,"o":"m 529 757 b 308 650 432 757 357 719 l 308 746 l 93 746 l 93 0 l 315 0 l 315 378 b 515 556 315 515 371 556 l 569 556 l 569 754 b 529 757 557 756 543 757 z m 224 -308 l 307 -83 l 101 -83 l 65 -308 z "},"s":{"ha":803,"x_min":0,"x_max":0,"o":"m 411 -25 b 754 235 604 -25 754 65 b 511 467 754 385 663 453 l 393 476 b 285 544 329 481 285 497 b 394 611 285 586 328 611 b 525 528 471 611 513 581 l 739 528 b 400 771 725 682 582 771 b 64 508 204 771 64 668 b 292 294 64 375 163 307 l 417 283 b 535 211 486 278 535 260 b 413 138 535 161 485 138 b 260 233 332 138 278 167 l 40 233 b 411 -25 64 61 222 -25 z "},"ś":{"ha":803,"x_min":0,"x_max":0,"o":"m 479 861 l 697 1094 l 433 1094 l 300 861 z m 411 -25 b 754 235 604 -25 754 65 b 511 467 754 385 663 453 l 393 476 b 285 544 329 481 285 497 b 394 611 285 586 328 611 b 525 528 471 611 513 581 l 739 528 b 400 771 725 682 582 771 b 64 508 204 771 64 668 b 292 294 64 375 163 307 l 417 283 b 535 211 486 278 535 260 b 413 138 535 161 485 138 b 260 233 332 138 278 167 l 40 233 b 411 -25 64 61 222 -25 z "},"š":{"ha":803,"x_min":0,"x_max":0,"o":"m 692 1094 l 492 1094 l 400 992 l 307 1094 l 107 1094 l 301 861 l 499 861 z m 393 476 b 285 544 329 481 285 497 b 394 611 285 586 328 611 b 525 528 471 611 513 581 l 739 528 b 400 771 725 682 582 771 b 64 508 204 771 64 668 b 292 294 64 375 163 307 l 417 283 b 535 211 486 278 535 260 b 413 138 535 161 485 138 b 260 233 332 138 278 167 l 40 233 b 411 -25 64 61 222 -25 b 754 235 604 -25 754 65 b 511 467 754 385 663 453 z "},"ş":{"ha":803,"x_min":0,"x_max":0,"o":"m 754 235 b 511 467 754 385 663 453 l 393 476 b 285 544 329 481 285 497 b 394 611 285 586 328 611 b 525 528 471 611 513 581 l 739 528 b 400 771 725 682 582 771 b 64 508 204 771 64 668 b 292 294 64 375 163 307 l 417 283 b 535 211 486 278 535 260 b 413 138 535 161 485 138 b 260 233 332 138 278 167 l 40 233 b 338 -21 61 83 183 -1 l 299 -78 l 326 -132 l 349 -132 b 392 -161 381 -132 392 -142 b 339 -187 392 -181 372 -187 b 278 -185 317 -187 304 -187 l 278 -282 b 363 -289 307 -287 335 -289 b 544 -171 493 -289 544 -246 b 424 -68 544 -111 494 -74 l 457 -24 b 754 235 628 -10 754 79 z "},"ŝ":{"ha":803,"x_min":0,"x_max":0,"o":"m 492 861 l 692 861 l 499 1094 l 301 1094 l 107 861 l 307 861 l 400 963 z m 393 476 b 285 544 329 481 285 497 b 394 611 285 586 328 611 b 525 528 471 611 513 581 l 739 528 b 400 771 725 682 582 771 b 64 508 204 771 64 668 b 292 294 64 375 163 307 l 417 283 b 535 211 486 278 535 260 b 413 138 535 161 485 138 b 260 233 332 138 278 167 l 40 233 b 411 -25 64 61 222 -25 b 754 235 604 -25 754 65 b 511 467 754 385 663 453 z "},"ș":{"ha":803,"x_min":0,"x_max":0,"o":"m 411 -25 b 754 235 604 -25 754 65 b 511 467 754 385 663 453 l 393 476 b 285 544 329 481 285 497 b 394 611 285 586 328 611 b 525 528 471 611 513 581 l 739 528 b 400 771 725 682 582 771 b 64 508 204 771 64 668 b 292 294 64 375 163 307 l 417 283 b 535 211 486 278 535 260 b 413 138 535 161 485 138 b 260 233 332 138 278 167 l 40 233 b 411 -25 64 61 222 -25 z m 419 -308 l 503 -83 l 297 -83 l 261 -308 z "},"ß":{"ha":922,"x_min":0,"x_max":0,"o":"m 693 536 b 835 754 782 576 835 650 b 463 1026 835 925 692 1026 b 93 703 251 1026 93 939 l 93 0 l 315 0 l 315 688 b 461 849 315 776 350 849 b 608 725 560 849 608 794 b 485 603 608 653 561 603 l 424 603 l 424 429 l 517 429 b 646 304 597 429 646 379 b 504 178 646 226 593 178 l 424 178 l 424 0 l 528 0 b 874 279 728 0 874 103 b 693 536 874 403 804 494 z "},"t":{"ha":632,"x_min":0,"x_max":0,"o":"m 476 188 b 389 265 410 188 389 192 l 389 568 l 578 568 l 578 746 l 389 746 l 389 939 l 168 939 l 168 746 l 22 746 l 22 568 l 168 568 l 168 239 b 432 0 168 68 229 0 l 594 0 l 594 188 z "},"ť":{"ha":632,"x_min":0,"x_max":0,"o":"m 447 797 l 611 797 l 647 1007 l 454 1007 z m 389 568 l 578 568 l 578 746 l 389 746 l 389 939 l 168 939 l 168 746 l 22 746 l 22 568 l 168 568 l 168 239 b 432 0 168 68 229 0 l 594 0 l 594 188 l 476 188 b 389 265 410 188 389 192 z "},"ţ":{"ha":632,"x_min":0,"x_max":0,"o":"m 594 188 l 476 188 b 389 265 410 188 389 192 l 389 568 l 578 568 l 578 746 l 389 746 l 389 939 l 168 939 l 168 746 l 22 746 l 22 568 l 168 568 l 168 239 b 326 8 168 103 207 32 l 267 -78 l 294 -132 l 317 -132 b 360 -161 349 -132 360 -142 b 307 -187 360 -181 340 -187 b 246 -185 285 -187 272 -187 l 246 -282 b 331 -289 275 -287 303 -289 b 513 -171 461 -289 513 -246 b 392 -68 513 -111 463 -74 l 443 0 l 594 0 z "},"ț":{"ha":632,"x_min":0,"x_max":0,"o":"m 476 188 b 389 265 410 188 389 192 l 389 568 l 578 568 l 578 746 l 389 746 l 389 939 l 168 939 l 168 746 l 22 746 l 22 568 l 168 568 l 168 239 b 432 0 168 68 229 0 l 594 0 l 594 188 z m 389 -308 l 472 -83 l 267 -83 l 231 -308 z "},"u":{"ha":888,"x_min":0,"x_max":0,"o":"m 572 332 b 429 153 572 215 511 153 b 306 296 350 153 306 213 l 306 746 l 85 746 l 85 268 b 367 -25 85 83 193 -25 b 579 82 457 -25 529 11 l 579 0 l 794 0 l 794 746 l 572 746 z "},"ú":{"ha":888,"x_min":0,"x_max":0,"o":"m 478 1094 l 344 861 l 524 861 l 742 1094 z m 572 332 b 429 153 572 215 511 153 b 306 296 350 153 306 213 l 306 746 l 85 746 l 85 268 b 367 -25 85 83 193 -25 b 579 82 457 -25 529 11 l 579 0 l 794 0 l 794 746 l 572 746 z "},"ŭ":{"ha":888,"x_min":0,"x_max":0,"o":"m 442 856 b 710 1088 613 856 708 936 l 532 1088 b 444 996 529 1022 499 996 b 354 1088 390 996 357 1022 l 179 1088 b 442 856 181 936 290 856 z m 572 332 b 429 153 572 215 511 153 b 306 296 350 153 306 213 l 306 746 l 85 746 l 85 268 b 367 -25 85 83 193 -25 b 579 82 457 -25 529 11 l 579 0 l 794 0 l 794 746 l 572 746 z "},"ǔ":{"ha":888,"x_min":0,"x_max":0,"o":"m 736 1094 l 536 1094 l 444 992 l 351 1094 l 151 1094 l 346 861 l 543 861 z m 572 332 b 429 153 572 215 511 153 b 306 296 350 153 306 213 l 306 746 l 85 746 l 85 268 b 367 -25 85 83 193 -25 b 579 82 457 -25 529 11 l 579 0 l 794 0 l 794 746 l 572 746 z "},"û":{"ha":888,"x_min":0,"x_max":0,"o":"m 536 861 l 736 861 l 543 1094 l 346 1094 l 151 861 l 351 861 l 444 963 z m 572 332 b 429 153 572 215 511 153 b 306 296 350 153 306 213 l 306 746 l 85 746 l 85 268 b 367 -25 85 83 193 -25 b 579 82 457 -25 529 11 l 579 0 l 794 0 l 794 746 l 572 746 z "},"ü":{"ha":888,"x_min":0,"x_max":0,"o":"m 260 857 b 378 971 324 857 378 907 b 260 1086 378 1036 326 1086 b 142 971 193 1086 142 1036 b 260 857 142 907 193 857 z m 628 857 b 744 971 690 857 744 907 b 628 1086 744 1036 693 1086 b 508 971 560 1086 508 1036 b 628 857 508 907 560 857 z m 572 332 b 429 153 572 215 511 153 b 306 296 350 153 306 213 l 306 746 l 85 746 l 85 268 b 367 -25 85 83 193 -25 b 579 82 457 -25 529 11 l 579 0 l 794 0 l 794 746 l 572 746 z "},"ụ":{"ha":888,"x_min":0,"x_max":0,"o":"m 572 332 b 429 153 572 215 511 153 b 306 296 350 153 306 213 l 306 746 l 85 746 l 85 268 b 367 -25 85 83 193 -25 b 579 82 457 -25 529 11 l 579 0 l 794 0 l 794 746 l 572 746 z m 444 -96 b 313 -224 369 -96 313 -150 b 444 -350 313 -296 369 -350 b 576 -224 515 -350 576 -296 b 444 -96 576 -150 518 -96 z "},"ù":{"ha":888,"x_min":0,"x_max":0,"o":"m 415 1094 l 151 1094 l 367 861 l 544 861 z m 572 332 b 429 153 572 215 511 153 b 306 296 350 153 306 213 l 306 746 l 85 746 l 85 268 b 367 -25 85 83 193 -25 b 579 82 457 -25 529 11 l 579 0 l 794 0 l 794 746 l 572 746 z "},"ű":{"ha":888,"x_min":0,"x_max":0,"o":"m 304 1094 l 235 861 l 390 861 l 513 1094 z m 814 1094 l 607 1094 l 513 861 l 668 861 z m 572 332 b 429 153 572 215 511 153 b 306 296 350 153 306 213 l 306 746 l 85 746 l 85 268 b 367 -25 85 83 193 -25 b 579 82 457 -25 529 11 l 579 0 l 794 0 l 794 746 l 572 746 z "},"ū":{"ha":888,"x_min":0,"x_max":0,"o":"m 182 1024 l 182 868 l 706 868 l 706 1024 z m 572 332 b 429 153 572 215 511 153 b 306 296 350 153 306 213 l 306 746 l 85 746 l 85 268 b 367 -25 85 83 193 -25 b 579 82 457 -25 529 11 l 579 0 l 794 0 l 794 746 l 572 746 z "},"ų":{"ha":888,"x_min":0,"x_max":0,"o":"m 572 332 b 429 153 572 215 511 153 b 306 296 350 153 306 213 l 306 746 l 85 746 l 85 268 b 367 -25 85 83 193 -25 b 579 82 457 -25 529 11 l 579 3 b 486 -162 519 -44 486 -100 b 651 -292 486 -237 540 -292 b 746 -282 682 -292 715 -290 l 746 -165 l 728 -165 b 661 -121 686 -165 661 -151 b 746 0 661 -74 693 -29 l 794 0 l 794 746 l 572 746 z "},"ů":{"ha":888,"x_min":0,"x_max":0,"o":"m 444 853 b 624 1026 550 853 624 925 b 444 1199 624 1126 550 1199 b 264 1026 339 1199 264 1126 b 444 853 264 925 339 853 z m 444 1093 b 511 1026 485 1093 511 1065 b 444 958 511 986 485 958 b 376 1026 406 958 376 986 b 444 1093 376 1065 406 1093 z m 572 332 b 429 153 572 215 511 153 b 306 296 350 153 306 213 l 306 746 l 85 746 l 85 268 b 367 -25 85 83 193 -25 b 579 82 457 -25 529 11 l 579 0 l 794 0 l 794 746 l 572 746 z "},"ũ":{"ha":888,"x_min":0,"x_max":0,"o":"m 360 943 b 561 858 424 943 436 858 b 751 1086 682 858 751 932 l 586 1086 b 529 1011 583 1036 569 1011 b 328 1096 465 1011 453 1096 b 138 868 207 1096 138 1022 l 301 868 b 360 943 306 918 318 943 z m 572 332 b 429 153 572 215 511 153 b 306 296 350 153 306 213 l 306 746 l 85 746 l 85 268 b 367 -25 85 83 193 -25 b 579 82 457 -25 529 11 l 579 0 l 794 0 l 794 746 l 572 746 z "},"v":{"ha":826,"x_min":0,"x_max":0,"o":"m 417 257 l 244 746 l 13 746 l 304 0 l 525 0 l 813 746 l 585 746 z "},"w":{"ha":1242,"x_min":0,"x_max":0,"o":"m 878 272 l 697 746 l 546 746 l 374 276 l 233 746 l 13 746 l 258 0 l 467 0 l 619 406 l 774 0 l 983 0 l 1228 746 l 1010 746 z "},"ẃ":{"ha":1242,"x_min":0,"x_max":0,"o":"m 654 1094 l 521 861 l 700 861 l 918 1094 z m 878 272 l 697 746 l 546 746 l 374 276 l 233 746 l 13 746 l 258 0 l 467 0 l 619 406 l 774 0 l 983 0 l 1228 746 l 1010 746 z "},"ŵ":{"ha":1242,"x_min":0,"x_max":0,"o":"m 713 861 l 913 861 l 719 1094 l 522 1094 l 328 861 l 528 861 l 621 963 z m 878 272 l 697 746 l 546 746 l 374 276 l 233 746 l 13 746 l 258 0 l 467 0 l 619 406 l 774 0 l 983 0 l 1228 746 l 1010 746 z "},"ẅ":{"ha":1242,"x_min":0,"x_max":0,"o":"m 438 857 b 556 971 501 857 556 907 b 438 1086 556 1036 504 1086 b 319 971 371 1086 319 1036 b 438 857 319 907 371 857 z m 806 857 b 922 971 868 857 922 907 b 806 1086 922 1036 871 1086 b 686 971 738 1086 686 1036 b 806 857 686 907 738 857 z m 878 272 l 697 746 l 546 746 l 374 276 l 233 746 l 13 746 l 258 0 l 467 0 l 619 406 l 774 0 l 983 0 l 1228 746 l 1010 746 z "},"ẁ":{"ha":1242,"x_min":0,"x_max":0,"o":"m 592 1094 l 328 1094 l 543 861 l 721 861 z m 878 272 l 697 746 l 546 746 l 374 276 l 233 746 l 13 746 l 258 0 l 467 0 l 619 406 l 774 0 l 983 0 l 1228 746 l 1010 746 z "},"x":{"ha":801,"x_min":0,"x_max":0,"o":"m 522 383 l 758 746 l 528 746 l 397 533 l 254 746 l 15 746 l 263 382 l 21 0 l 251 0 l 394 232 l 551 0 l 786 0 z "},"y":{"ha":826,"x_min":0,"x_max":0,"o":"m 417 257 l 244 746 l 13 746 l 306 11 l 203 -250 l 422 -250 l 813 746 l 585 746 z "},"ý":{"ha":826,"x_min":0,"x_max":0,"o":"m 446 1094 l 313 861 l 492 861 l 710 1094 z m 417 257 l 244 746 l 13 746 l 306 11 l 203 -250 l 422 -250 l 813 746 l 585 746 z "},"ŷ":{"ha":826,"x_min":0,"x_max":0,"o":"m 504 861 l 704 861 l 511 1094 l 314 1094 l 119 861 l 319 861 l 413 963 z m 417 257 l 244 746 l 13 746 l 306 11 l 203 -250 l 422 -250 l 813 746 l 585 746 z "},"ÿ":{"ha":826,"x_min":0,"x_max":0,"o":"m 229 857 b 347 971 293 857 347 907 b 229 1086 347 1036 296 1086 b 111 971 163 1086 111 1036 b 229 857 111 907 163 857 z m 597 857 b 714 971 660 857 714 907 b 597 1086 714 1036 663 1086 b 478 971 529 1086 478 1036 b 597 857 478 907 529 857 z m 417 257 l 244 746 l 13 746 l 306 11 l 203 -250 l 422 -250 l 813 746 l 585 746 z "},"ỳ":{"ha":826,"x_min":0,"x_max":0,"o":"m 383 1094 l 119 1094 l 335 861 l 513 861 z m 417 257 l 244 746 l 13 746 l 306 11 l 203 -250 l 422 -250 l 813 746 l 585 746 z "},"ȳ":{"ha":826,"x_min":0,"x_max":0,"o":"m 150 1024 l 150 868 l 674 868 l 674 1024 z m 417 257 l 244 746 l 13 746 l 306 11 l 203 -250 l 422 -250 l 813 746 l 585 746 z "},"ỹ":{"ha":826,"x_min":0,"x_max":0,"o":"m 328 943 b 529 858 392 943 404 858 b 719 1086 650 858 719 932 l 554 1086 b 497 1011 551 1036 538 1011 b 296 1096 433 1011 421 1096 b 106 868 175 1096 106 1022 l 269 868 b 328 943 274 918 286 943 z m 417 257 l 244 746 l 13 746 l 306 11 l 203 -250 l 422 -250 l 813 746 l 585 746 z "},"z":{"ha":769,"x_min":0,"x_max":0,"o":"m 700 617 l 700 746 l 69 746 l 69 572 l 417 572 l 54 128 l 54 0 l 714 0 l 714 175 l 338 175 z "},"ź":{"ha":769,"x_min":0,"x_max":0,"o":"m 418 1094 l 285 861 l 464 861 l 682 1094 z m 700 617 l 700 746 l 69 746 l 69 572 l 417 572 l 54 128 l 54 0 l 714 0 l 714 175 l 338 175 z "},"ž":{"ha":769,"x_min":0,"x_max":0,"o":"m 676 1094 l 476 1094 l 385 992 l 292 1094 l 92 1094 l 286 861 l 483 861 z m 700 617 l 700 746 l 69 746 l 69 572 l 417 572 l 54 128 l 54 0 l 714 0 l 714 175 l 338 175 z "},"ż":{"ha":769,"x_min":0,"x_max":0,"o":"m 385 858 b 517 985 456 858 517 913 b 385 1113 517 1058 458 1113 b 253 985 310 1113 253 1058 b 385 858 253 913 310 858 z m 700 617 l 700 746 l 69 746 l 69 572 l 417 572 l 54 128 l 54 0 l 714 0 l 714 175 l 338 175 z "},"ﬁ":{"ha":1017,"x_min":0,"x_max":0,"o":"m 813 858 b 943 985 883 858 943 913 b 813 1113 943 1058 886 1113 b 679 985 738 1113 679 1058 b 813 858 679 913 738 858 z m 164 746 l 22 746 l 22 568 l 164 568 l 164 0 l 386 0 l 386 568 l 572 568 l 572 746 l 386 746 l 386 756 b 463 829 386 819 404 829 l 588 829 l 588 1007 l 428 1007 b 164 782 225 1007 164 935 z m 924 0 l 924 746 l 701 746 l 701 0 z "},"ﬂ":{"ha":1017,"x_min":0,"x_max":0,"o":"m 164 746 l 22 746 l 22 568 l 164 568 l 164 0 l 386 0 l 386 568 l 572 568 l 572 746 l 386 746 l 386 756 b 463 829 386 819 404 829 l 588 829 l 588 1007 l 428 1007 b 164 782 225 1007 164 935 z m 701 0 l 924 0 l 924 1007 l 701 1007 z "},"ª":{"ha":603,"x_min":0,"x_max":0,"o":"m 551 481 b 543 608 549 517 543 565 l 543 824 b 297 1026 543 950 458 1026 b 49 850 153 1026 63 967 l 210 850 b 299 907 217 878 240 907 b 383 829 354 907 383 878 l 383 821 b 328 814 367 817 350 815 l 219 801 b 32 640 104 789 32 740 b 232 467 32 536 113 467 b 400 540 303 467 361 490 l 406 481 z m 267 583 b 189 644 219 583 189 610 b 246 694 189 685 228 693 l 326 703 b 383 718 349 706 368 710 l 383 688 b 267 583 383 625 333 583 z "},"º":{"ha":639,"x_min":0,"x_max":0,"o":"m 319 461 b 607 744 489 461 607 582 b 319 1026 607 907 490 1026 b 32 744 150 1026 32 907 b 319 461 32 582 150 461 z m 319 592 b 199 744 243 592 199 650 b 319 896 199 839 243 896 b 440 744 397 896 440 840 b 319 592 440 649 397 592 z "},"Δ":{"ha":1061,"x_min":0,"x_max":0,"o":"m 417 1007 l 11 0 l 1050 0 l 644 1007 z m 738 193 l 317 193 l 526 743 z "},"Ω":{"ha":1181,"x_min":0,"x_max":0,"o":"m 958 188 b 1119 529 1058 265 1119 383 b 590 1032 1119 825 888 1032 b 61 529 293 1032 61 825 b 222 188 61 383 122 265 l 54 188 l 54 0 l 513 0 l 513 185 b 300 515 376 242 300 338 b 592 838 300 711 415 838 b 881 515 767 838 881 711 b 668 185 881 338 804 242 l 668 0 l 1126 0 l 1126 188 z "},"μ":{"ha":896,"x_min":0,"x_max":0,"o":"m 581 332 b 439 153 581 215 521 153 b 315 296 358 153 315 213 l 315 746 l 93 746 l 93 -250 l 307 -250 l 307 -14 b 376 -25 329 -22 353 -25 b 588 79 467 -25 538 10 l 588 0 l 803 0 l 803 746 l 581 746 z "},"π":{"ha":969,"x_min":0,"x_max":0,"o":"m 932 746 l 22 746 l 22 568 l 143 568 l 143 0 l 364 0 l 364 568 l 590 568 l 590 239 b 854 0 590 68 651 0 l 932 0 l 932 188 l 900 188 b 813 265 833 188 813 192 l 813 568 l 932 568 z "},"₀":{"ha":589,"x_min":0,"x_max":0,"o":"m 294 -189 b 551 104 451 -189 551 -75 b 294 396 551 283 451 396 b 38 104 138 396 38 283 b 294 -189 38 -75 138 -189 z m 294 -56 b 204 104 236 -56 204 1 b 294 263 204 207 236 263 b 385 104 353 263 385 206 b 294 -56 385 1 353 -56 z "},"₁":{"ha":407,"x_min":0,"x_max":0,"o":"m 31 265 l 31 104 l 181 201 l 181 -174 l 342 -174 l 342 381 l 197 381 z "},"₂":{"ha":504,"x_min":0,"x_max":0,"o":"m 301 -33 b 467 213 388 40 467 114 b 247 396 467 326 372 396 b 31 206 118 396 42 322 l 179 206 b 251 269 189 246 215 269 b 307 215 290 269 307 242 b 193 67 307 171 260 126 l 36 -71 l 36 -174 l 468 -174 l 468 -53 l 279 -53 z "},"₃":{"ha":521,"x_min":0,"x_max":0,"o":"m 474 276 l 474 381 l 43 381 l 43 260 l 274 260 l 138 136 l 196 46 b 251 58 215 54 238 58 b 322 -4 297 58 322 32 b 260 -67 322 -46 296 -67 b 182 -6 225 -67 196 -44 l 26 -6 b 261 -189 46 -117 126 -189 b 482 -7 396 -189 482 -114 b 333 156 482 74 429 139 z "},"₄":{"ha":553,"x_min":0,"x_max":0,"o":"m 440 29 l 440 381 l 289 381 l 31 26 l 31 -93 l 300 -93 l 300 -174 l 440 -174 l 440 -93 l 524 -93 l 524 29 z m 300 194 l 300 29 l 179 29 z "},"₅":{"ha":542,"x_min":0,"x_max":0,"o":"m 301 196 b 215 182 269 196 240 192 l 228 260 l 483 260 l 483 381 l 104 381 l 60 82 l 181 39 b 272 75 201 63 238 75 b 347 4 324 75 347 44 b 278 -64 347 -37 322 -64 b 196 -8 238 -64 206 -40 l 36 -8 b 279 -186 65 -132 163 -186 b 508 11 418 -186 508 -108 b 301 196 508 122 429 196 z "},"₆":{"ha":557,"x_min":0,"x_max":0,"o":"m 306 204 b 189 165 258 204 219 190 b 294 281 200 239 235 281 b 363 242 325 281 347 267 l 510 242 b 294 396 482 338 411 396 b 38 100 131 396 38 281 b 289 -189 38 -82 129 -189 b 524 6 424 -189 524 -111 b 306 204 524 131 421 204 z m 288 -64 b 204 10 236 -64 204 -33 b 288 85 204 54 238 85 b 368 11 336 85 368 54 b 288 -64 368 -32 336 -64 z "},"₇":{"ha":492,"x_min":0,"x_max":0,"o":"m 28 260 l 288 260 l 71 -174 l 244 -174 l 464 278 l 464 381 l 28 381 z "},"₈":{"ha":539,"x_min":0,"x_max":0,"o":"m 413 117 b 486 239 460 143 486 185 b 269 396 486 335 401 396 b 51 239 138 396 51 336 b 125 115 51 185 78 143 b 32 -19 65 90 32 44 b 269 -189 32 -129 118 -189 b 507 -19 422 -189 507 -128 b 413 117 507 44 474 90 z m 269 282 b 346 225 317 282 346 260 b 269 165 346 188 317 165 b 193 225 221 165 193 189 b 269 282 193 260 224 282 z m 269 -75 b 193 -10 224 -75 193 -50 b 269 57 193 31 224 57 b 346 -10 317 57 346 31 b 269 -75 346 -50 315 -75 z "},"₉":{"ha":557,"x_min":0,"x_max":0,"o":"m 268 396 b 35 200 135 396 35 318 b 250 3 35 75 136 3 b 368 42 297 3 338 17 b 264 -74 357 -33 324 -74 b 194 -35 233 -74 210 -60 l 46 -35 b 263 -189 74 -129 143 -189 b 519 107 426 -189 519 -74 b 268 396 519 289 428 396 z m 271 122 b 189 196 221 122 189 153 b 271 269 189 239 221 269 b 353 197 321 269 353 239 b 271 122 353 153 321 122 z "},"⁰":{"ha":589,"x_min":0,"x_max":0,"o":"m 294 736 b 551 1029 451 736 551 850 b 294 1321 551 1208 451 1321 b 38 1029 138 1321 38 1208 b 294 736 38 850 138 736 z m 294 869 b 204 1029 236 869 204 926 b 294 1188 204 1132 236 1188 b 385 1029 353 1188 385 1131 b 294 869 385 926 353 869 z "},"¹":{"ha":407,"x_min":0,"x_max":0,"o":"m 31 1190 l 31 1029 l 181 1126 l 181 751 l 342 751 l 342 1306 l 197 1306 z "},"²":{"ha":504,"x_min":0,"x_max":0,"o":"m 301 892 b 467 1138 388 965 467 1039 b 247 1321 467 1251 372 1321 b 31 1131 118 1321 42 1247 l 179 1131 b 251 1194 189 1171 215 1194 b 307 1140 290 1194 307 1167 b 193 992 307 1096 260 1051 l 36 854 l 36 751 l 468 751 l 468 872 l 279 872 z "},"³":{"ha":521,"x_min":0,"x_max":0,"o":"m 474 1201 l 474 1306 l 43 1306 l 43 1185 l 274 1185 l 138 1061 l 196 971 b 251 983 215 979 238 983 b 322 921 297 983 322 957 b 260 858 322 879 296 858 b 182 919 225 858 196 881 l 26 919 b 261 736 46 808 126 736 b 482 918 396 736 482 811 b 333 1081 482 999 429 1064 z "},"⁴":{"ha":553,"x_min":0,"x_max":0,"o":"m 440 954 l 440 1306 l 289 1306 l 31 951 l 31 832 l 300 832 l 300 751 l 440 751 l 440 832 l 524 832 l 524 954 z m 300 1119 l 300 954 l 179 954 z "},"⁵":{"ha":542,"x_min":0,"x_max":0,"o":"m 301 1121 b 215 1107 269 1121 240 1117 l 228 1185 l 483 1185 l 483 1306 l 104 1306 l 60 1007 l 181 964 b 272 1000 201 988 238 1000 b 347 929 324 1000 347 969 b 278 861 347 888 322 861 b 196 917 238 861 206 885 l 36 917 b 279 739 65 793 163 739 b 508 936 418 739 508 817 b 301 1121 508 1047 429 1121 z "},"⁶":{"ha":557,"x_min":0,"x_max":0,"o":"m 306 1129 b 189 1090 258 1129 219 1115 b 294 1206 200 1164 235 1206 b 363 1167 325 1206 347 1192 l 510 1167 b 294 1321 482 1263 411 1321 b 38 1025 131 1321 38 1206 b 289 736 38 843 129 736 b 524 931 424 736 524 814 b 306 1129 524 1056 421 1129 z m 288 861 b 204 935 236 861 204 892 b 288 1010 204 979 238 1010 b 368 936 336 1010 368 979 b 288 861 368 893 336 861 z "},"⁷":{"ha":492,"x_min":0,"x_max":0,"o":"m 28 1185 l 288 1185 l 71 751 l 244 751 l 464 1203 l 464 1306 l 28 1306 z "},"⁸":{"ha":539,"x_min":0,"x_max":0,"o":"m 413 1042 b 486 1164 460 1068 486 1110 b 269 1321 486 1260 401 1321 b 51 1164 138 1321 51 1261 b 125 1040 51 1110 78 1068 b 32 906 65 1015 32 969 b 269 736 32 796 118 736 b 507 906 422 736 507 797 b 413 1042 507 969 474 1015 z m 269 1207 b 346 1150 317 1207 346 1185 b 269 1090 346 1113 317 1090 b 193 1150 221 1090 193 1114 b 269 1207 193 1185 224 1207 z m 269 850 b 193 915 224 850 193 875 b 269 982 193 956 224 982 b 346 915 317 982 346 956 b 269 850 346 875 315 850 z "},"⁹":{"ha":557,"x_min":0,"x_max":0,"o":"m 268 1321 b 35 1125 135 1321 35 1243 b 250 928 35 1000 136 928 b 368 967 297 928 338 942 b 264 851 357 892 324 851 b 194 890 233 851 210 865 l 46 890 b 263 736 74 796 143 736 b 519 1032 426 736 519 851 b 268 1321 519 1214 428 1321 z m 271 1047 b 189 1121 221 1047 189 1078 b 271 1194 189 1164 221 1194 b 353 1122 321 1194 353 1164 b 271 1047 353 1078 321 1047 z "},"⁄":{"ha":189,"x_min":0,"x_max":0,"o":"m -154 0 l 521 1007 l 343 1007 l -332 0 z "},"½":{"ha":1154,"x_min":0,"x_max":0,"o":"m 342 453 l 342 1007 l 197 1007 l 31 892 l 31 731 l 181 828 l 181 453 z m 107 0 l 285 0 l 960 1007 l 782 1007 z m 951 140 b 1115 386 1038 214 1115 288 b 897 569 1115 500 1022 569 b 681 379 768 569 692 496 l 829 379 b 900 443 838 419 864 443 b 957 389 940 443 957 415 b 843 240 957 344 910 300 l 686 103 l 686 0 l 1118 0 l 1118 121 l 929 121 z "},"¼":{"ha":1113,"x_min":0,"x_max":0,"o":"m 342 453 l 342 1007 l 197 1007 l 31 892 l 31 731 l 181 828 l 181 453 z m 107 0 l 285 0 l 960 1007 l 782 1007 z m 999 203 l 999 554 l 849 554 l 589 200 l 589 81 l 860 81 l 860 0 l 999 0 l 999 81 l 1082 81 l 1082 203 z m 860 368 l 860 203 l 739 203 z "},"¾":{"ha":1221,"x_min":0,"x_max":0,"o":"m 482 619 b 333 782 482 700 429 765 l 474 903 l 474 1007 l 43 1007 l 43 886 l 274 886 l 138 763 l 196 672 b 251 685 215 681 238 685 b 322 622 297 685 322 658 b 260 560 322 581 296 560 b 182 621 225 560 196 582 l 26 621 b 261 438 46 510 126 438 b 482 619 396 438 482 513 z m 217 0 l 394 0 l 1069 1007 l 892 1007 z m 1107 203 l 1107 554 l 957 554 l 697 200 l 697 81 l 968 81 l 968 0 l 1107 0 l 1107 81 l 1192 81 l 1192 203 z m 968 368 l 968 203 l 847 203 z "},".":{"ha":399,"x_min":0,"x_max":0,"o":"m 200 -11 b 331 115 271 -11 331 43 b 200 243 331 189 274 243 b 68 115 125 243 68 189 b 200 -11 68 43 125 -11 z "},",":{"ha":401,"x_min":0,"x_max":0,"o":"m 200 -181 l 333 211 l 111 211 l 38 -181 z "},":":{"ha":399,"x_min":0,"x_max":0,"o":"m 200 501 b 331 628 271 501 331 556 b 200 756 331 701 274 756 b 68 628 125 756 68 701 b 200 501 68 556 125 501 z m 200 -11 b 331 115 271 -11 331 43 b 200 243 331 189 274 243 b 68 115 125 243 68 189 b 200 -11 68 43 125 -11 z "},";":{"ha":418,"x_min":0,"x_max":0,"o":"m 219 501 b 350 628 290 501 350 556 b 219 756 350 701 292 756 b 86 628 144 756 86 701 b 219 501 86 556 144 501 z m 204 -181 l 339 211 l 111 211 l 38 -181 z "},"…":{"ha":1104,"x_min":0,"x_max":0,"o":"m 200 -11 b 331 115 271 -11 331 43 b 200 243 331 189 274 243 b 68 115 125 243 68 189 b 200 -11 68 43 125 -11 z m 553 -11 b 683 115 624 -11 683 43 b 553 243 683 189 626 243 b 421 115 478 243 421 189 b 553 -11 421 43 478 -11 z m 906 -11 b 1036 115 976 -11 1036 43 b 906 243 1036 189 979 243 b 774 115 831 243 774 189 b 906 -11 774 43 831 -11 z "},"!":{"ha":426,"x_min":0,"x_max":0,"o":"m 306 340 l 331 1007 l 97 1007 l 122 340 z m 214 -11 b 344 115 285 -11 344 43 b 214 243 344 189 288 243 b 82 115 139 243 82 189 b 214 -11 82 43 139 -11 z "},"¡":{"ha":426,"x_min":0,"x_max":0,"o":"m 213 768 b 82 642 142 768 82 714 b 213 514 82 568 139 514 b 344 642 288 514 344 568 b 213 768 344 714 288 768 z m 121 417 l 96 -250 l 329 -250 l 304 417 z "},"?":{"ha":811,"x_min":0,"x_max":0,"o":"m 492 340 l 492 357 b 765 735 492 500 765 501 b 404 1032 765 914 622 1032 b 32 688 179 1032 29 904 l 249 688 b 400 839 253 785 313 839 b 538 717 483 839 538 788 b 289 357 538 581 289 571 l 289 340 z m 390 -11 b 522 115 463 -11 522 43 b 392 243 522 189 464 243 b 258 115 317 243 258 189 b 390 -11 258 43 317 -11 z "},"¿":{"ha":811,"x_min":0,"x_max":0,"o":"m 421 767 b 289 640 349 767 289 713 b 421 513 289 567 347 513 b 553 640 494 513 553 567 b 421 767 553 713 494 767 z m 319 417 l 319 400 b 46 22 319 256 46 256 b 407 -276 46 -158 189 -276 b 779 69 632 -276 782 -149 l 563 69 b 411 -83 558 -28 499 -83 b 274 40 328 -83 274 -32 b 522 400 274 175 522 185 l 522 417 z "},"·":{"ha":375,"x_min":0,"x_max":0,"o":"m 188 357 b 319 483 258 357 319 411 b 188 611 319 557 261 611 b 56 483 113 611 56 557 b 188 357 56 411 113 357 z "},"•":{"ha":556,"x_min":0,"x_max":0,"o":"m 278 279 b 486 486 397 279 486 367 b 278 693 486 606 397 693 b 71 486 158 693 71 606 b 278 279 71 367 158 279 z "},"*":{"ha":665,"x_min":0,"x_max":0,"o":"m 333 635 l 406 464 l 542 544 l 424 685 l 610 668 l 610 825 l 424 808 l 540 950 l 404 1031 l 333 858 l 261 1031 l 126 947 l 242 808 l 56 825 l 56 668 l 242 685 l 125 546 l 263 464 z "},"#":{"ha":1157,"x_min":0,"x_max":0,"o":"m 1101 757 l 886 757 l 939 1007 l 781 1007 l 728 757 l 539 757 l 592 1007 l 433 1007 l 381 757 l 164 757 l 132 611 l 349 611 l 303 397 l 88 397 l 56 253 l 272 253 l 218 0 l 376 0 l 431 253 l 619 253 l 565 0 l 724 0 l 778 253 l 994 253 l 1025 397 l 808 397 l 854 611 l 1071 611 z m 461 397 l 507 611 l 696 611 l 650 397 z "},"/":{"ha":913,"x_min":0,"x_max":0,"o":"m 283 0 l 879 1007 l 629 1007 l 33 0 z "},"\\":{"ha":913,"x_min":0,"x_max":0,"o":"m 283 1007 l 33 1007 l 629 0 l 879 0 z "},"(":{"ha":542,"x_min":0,"x_max":0,"o":"m 525 -250 b 288 476 365 -11 288 222 b 525 1203 288 731 365 967 l 281 1203 b 54 476 128 979 54 731 b 281 -250 54 222 128 -22 z "},")":{"ha":543,"x_min":0,"x_max":0,"o":"m 261 -250 b 489 476 415 -22 489 222 b 261 1203 489 731 415 979 l 17 1203 b 254 476 176 967 254 731 b 17 -250 254 222 176 -11 z "},"{":{"ha":596,"x_min":0,"x_max":0,"o":"m 565 -250 l 565 -56 l 501 -56 b 376 68 403 -56 376 -21 l 376 224 b 268 476 376 368 365 436 b 376 729 365 517 376 586 l 376 883 b 501 1007 376 972 403 1007 l 565 1007 l 565 1201 l 431 1201 b 154 911 158 1201 154 1019 l 154 715 b 46 578 154 611 144 578 l 17 578 l 17 375 l 46 375 b 154 238 143 375 154 342 l 154 40 b 431 -250 154 -68 158 -250 z "},"}":{"ha":596,"x_min":0,"x_max":0,"o":"m 165 -250 b 442 40 438 -250 442 -68 l 442 238 b 550 375 442 342 453 375 l 579 375 l 579 578 l 550 578 b 442 715 451 578 442 611 l 442 911 b 165 1201 442 1019 438 1201 l 31 1201 l 31 1007 l 94 1007 b 219 883 193 1007 219 972 l 219 729 b 328 476 219 586 231 517 b 219 224 231 436 219 368 l 219 68 b 94 -56 219 -21 193 -56 l 31 -56 l 31 -250 z "},"[":{"ha":536,"x_min":0,"x_max":0,"o":"m 504 -250 l 504 -54 l 322 -54 l 322 1007 l 504 1007 l 504 1203 l 101 1203 l 101 -250 z "},"]":{"ha":536,"x_min":0,"x_max":0,"o":"m 435 1203 l 32 1203 l 32 1007 l 214 1007 l 214 -54 l 32 -54 l 32 -250 l 435 -250 z "},"-":{"ha":633,"x_min":0,"x_max":0,"o":"m 557 335 l 557 524 l 75 524 l 75 335 z "},"­":{"ha":633,"x_min":0,"x_max":0,"o":"m 557 335 l 557 524 l 75 524 l 75 335 z "},"–":{"ha":889,"x_min":0,"x_max":0,"o":"m 814 335 l 814 524 l 75 524 l 75 335 z "},"—":{"ha":1193,"x_min":0,"x_max":0,"o":"m 1131 335 l 1131 524 l 61 524 l 61 335 z "},"_":{"ha":639,"x_min":0,"x_max":0,"o":"m 633 -235 l 633 -58 l 6 -58 l 6 -235 z "},"‚":{"ha":357,"x_min":0,"x_max":0,"o":"m 224 -179 l 286 206 l 88 206 l 71 -179 z "},"„":{"ha":625,"x_min":0,"x_max":0,"o":"m 224 -179 l 286 206 l 88 206 l 71 -179 z m 492 -179 l 554 206 l 356 206 l 339 -179 z "},"“":{"ha":625,"x_min":0,"x_max":0,"o":"m 269 622 l 286 1007 l 133 1007 l 71 622 z m 538 622 l 554 1007 l 401 1007 l 339 622 z "},"”":{"ha":625,"x_min":0,"x_max":0,"o":"m 224 622 l 286 1007 l 88 1007 l 71 622 z m 492 622 l 554 1007 l 356 1007 l 339 622 z "},"‘":{"ha":357,"x_min":0,"x_max":0,"o":"m 269 622 l 286 1007 l 133 1007 l 71 622 z "},"’":{"ha":357,"x_min":0,"x_max":0,"o":"m 224 622 l 286 1007 l 88 1007 l 71 622 z "},"«":{"ha":822,"x_min":0,"x_max":0,"o":"m 236 676 l 44 372 l 236 68 l 439 68 l 258 372 l 439 676 z m 565 676 l 374 372 l 565 68 l 768 68 l 588 372 l 768 676 z "},"»":{"ha":822,"x_min":0,"x_max":0,"o":"m 54 676 l 235 372 l 54 68 l 257 68 l 450 372 l 257 676 z m 383 676 l 564 372 l 383 68 l 586 68 l 778 372 l 586 676 z "},"‹":{"ha":493,"x_min":0,"x_max":0,"o":"m 236 676 l 44 372 l 236 68 l 439 68 l 258 372 l 439 676 z "},"›":{"ha":494,"x_min":0,"x_max":0,"o":"m 54 676 l 235 372 l 54 68 l 257 68 l 450 372 l 257 676 z "},"\"":{"ha":576,"x_min":0,"x_max":0,"o":"m 232 642 l 254 1007 l 54 1007 l 76 642 z m 500 642 l 522 1007 l 322 1007 l 344 642 z "},"'":{"ha":308,"x_min":0,"x_max":0,"o":"m 232 642 l 254 1007 l 54 1007 l 76 642 z "}," ":{"ha":308,"x_min":0,"x_max":0,"o":""}," ":{"ha":1389,"x_min":0,"x_max":0,"o":""}," ":{"ha":1389,"x_min":0,"x_max":0,"o":""}," ":{"ha":694,"x_min":0,"x_max":0,"o":""}," ":{"ha":694,"x_min":0,"x_max":0,"o":""}," ":{"ha":967,"x_min":0,"x_max":0,"o":""}," ":{"ha":347,"x_min":0,"x_max":0,"o":""}," ":{"ha":97,"x_min":0,"x_max":0,"o":""}," ":{"ha":53,"x_min":0,"x_max":0,"o":""}," ":{"ha":399,"x_min":0,"x_max":0,"o":""}," ":{"ha":231,"x_min":0,"x_max":0,"o":""}," ":{"ha":263,"x_min":0,"x_max":0,"o":""}," ":{"ha":174,"x_min":0,"x_max":0,"o":""}," ":{"ha":463,"x_min":0,"x_max":0,"o":""},"​":{"ha":0,"x_min":0,"x_max":0,"o":""},"¢":{"ha":857,"x_min":0,"x_max":0,"o":"m 513 583 b 604 499 556 569 586 540 l 814 499 b 513 767 779 642 664 744 l 513 906 l 378 906 l 378 765 b 47 372 178 735 47 578 b 378 -19 47 167 178 11 l 378 -161 l 513 -161 l 513 -21 b 814 238 663 0 778 97 l 601 238 b 513 161 583 201 553 175 z m 276 372 b 378 578 276 476 313 549 l 378 167 b 276 372 313 196 276 268 z "},"¤":{"ha":839,"x_min":0,"x_max":0,"o":"m 256 225 b 421 176 303 194 360 176 b 583 224 482 176 538 193 l 681 126 l 783 229 l 689 326 b 736 490 722 376 736 426 b 689 656 736 553 719 608 l 783 750 l 681 853 l 586 758 b 421 806 538 789 481 806 b 254 757 358 806 306 788 l 161 854 l 57 751 l 153 654 b 108 490 125 607 108 553 b 154 328 108 429 121 376 l 56 229 l 158 126 z m 421 326 b 256 490 329 326 256 401 b 421 657 256 582 329 657 b 586 490 513 657 586 583 b 421 326 586 400 513 326 z "},"$":{"ha":921,"x_min":0,"x_max":0,"o":"m 875 311 b 575 599 875 464 790 574 l 529 604 l 529 840 b 636 724 586 821 622 779 l 857 724 b 529 1026 828 897 708 1006 l 529 1168 l 393 1168 l 393 1026 b 57 701 190 1004 57 879 b 344 417 57 533 179 438 l 393 410 l 393 165 b 260 299 333 182 281 222 l 32 299 b 393 -21 65 99 203 -1 l 393 -161 l 529 -161 l 529 -21 b 875 311 740 0 875 118 z m 292 724 b 393 842 292 779 329 824 l 393 624 b 292 724 347 633 292 658 z m 529 390 b 642 285 592 378 642 349 b 529 163 642 218 593 178 z "},"€":{"ha":1053,"x_min":0,"x_max":0,"o":"m 576 169 b 368 313 482 169 410 222 l 571 313 l 601 458 l 333 458 b 332 504 332 474 332 489 b 333 543 332 518 332 531 l 619 543 l 650 688 l 365 688 b 576 838 406 781 479 838 b 782 692 674 838 744 782 l 1006 692 b 576 1032 957 899 796 1032 b 140 688 365 1032 201 894 l 28 688 l 28 543 l 117 543 b 115 504 115 531 115 517 b 117 458 115 489 115 474 l 29 458 l 29 313 l 143 313 b 578 -25 204 110 367 -25 b 1004 313 794 -25 956 107 l 779 313 b 576 169 742 224 672 169 z "},"ƒ":{"ha":801,"x_min":0,"x_max":0,"o":"m 781 828 l 781 1007 l 603 1007 b 346 818 454 1007 371 956 l 322 685 l 156 685 l 156 507 l 292 507 l 206 13 b 99 -71 194 -44 164 -71 l -21 -71 l -21 -250 l 164 -250 b 414 -61 307 -250 390 -200 l 514 507 l 733 507 l 733 685 l 544 685 l 556 744 b 663 828 565 801 597 828 z "},"£":{"ha":869,"x_min":0,"x_max":0,"o":"m 375 193 b 440 356 421 239 440 296 b 439 378 440 363 440 371 l 610 378 l 610 572 l 367 572 b 331 710 347 618 331 663 b 457 835 331 793 376 835 b 592 725 533 835 575 790 l 810 725 b 450 1029 786 913 669 1029 b 94 735 235 1029 94 925 b 136 572 94 669 114 619 l 35 572 l 35 378 l 214 378 b 215 351 215 369 215 361 b 33 190 215 271 147 190 l 33 0 l 817 0 l 817 193 z "},"¥":{"ha":961,"x_min":0,"x_max":0,"o":"m 700 1007 l 490 617 l 272 1007 l 11 1007 l 276 549 l 111 549 l 111 382 l 364 382 l 364 290 l 111 290 l 111 124 l 364 124 l 364 0 l 597 0 l 597 124 l 850 124 l 850 290 l 597 290 l 597 382 l 850 382 l 850 549 l 683 549 l 949 1007 z "},"+":{"ha":872,"x_min":0,"x_max":0,"o":"m 531 610 l 531 819 l 342 819 l 342 610 l 126 610 l 126 432 l 342 432 l 342 222 l 531 222 l 531 432 l 746 432 l 746 610 z "},"−":{"ha":872,"x_min":0,"x_max":0,"o":"m 746 432 l 746 610 l 126 610 l 126 432 z "},"×":{"ha":872,"x_min":0,"x_max":0,"o":"m 617 824 l 436 644 l 257 824 l 132 700 l 313 521 l 132 340 l 257 217 l 436 396 l 617 217 l 740 340 l 561 521 l 740 700 z "},"÷":{"ha":872,"x_min":0,"x_max":0,"o":"m 438 689 b 558 807 504 689 558 739 b 438 925 558 874 506 925 b 315 807 368 925 315 874 b 438 689 315 739 368 689 z m 746 432 l 746 610 l 126 610 l 126 432 z m 438 117 b 558 235 504 117 558 167 b 438 353 558 301 506 353 b 315 235 368 353 315 301 b 438 117 315 167 368 117 z "},"=":{"ha":872,"x_min":0,"x_max":0,"o":"m 746 568 l 746 746 l 126 746 l 126 568 z m 746 286 l 746 464 l 126 464 l 126 286 z "},"≠":{"ha":872,"x_min":0,"x_max":0,"o":"m 746 746 l 643 746 l 703 857 l 535 857 l 475 746 l 126 746 l 126 568 l 379 568 l 322 463 l 126 463 l 126 286 l 228 286 l 168 175 l 338 175 l 397 286 l 746 286 l 746 463 l 492 463 l 549 568 l 746 568 z "},">":{"ha":872,"x_min":0,"x_max":0,"o":"m 126 693 l 551 522 l 126 350 l 126 139 l 753 408 l 753 636 l 126 903 z "},"<":{"ha":872,"x_min":0,"x_max":0,"o":"m 119 636 l 119 408 l 746 139 l 746 350 l 321 522 l 746 693 l 746 903 z "},"≥":{"ha":872,"x_min":0,"x_max":0,"o":"m 126 735 l 539 596 l 126 457 l 126 246 l 753 482 l 753 710 l 126 944 z m 753 0 l 753 178 l 126 178 l 126 0 z "},"≤":{"ha":872,"x_min":0,"x_max":0,"o":"m 119 710 l 119 482 l 746 246 l 746 457 l 333 596 l 746 735 l 746 944 z m 746 0 l 746 178 l 119 178 l 119 0 z "},"±":{"ha":872,"x_min":0,"x_max":0,"o":"m 531 858 l 342 858 l 342 672 l 126 672 l 126 494 l 342 494 l 342 303 l 531 303 l 531 494 l 746 494 l 746 672 l 531 672 z m 746 0 l 746 178 l 126 178 l 126 0 z "},"≈":{"ha":872,"x_min":0,"x_max":0,"o":"m 558 546 b 758 792 683 546 758 625 l 597 792 b 542 711 594 738 579 711 b 313 801 471 711 444 801 b 114 556 189 801 114 722 l 274 556 b 331 636 278 610 292 636 b 558 546 400 636 428 546 z m 558 239 b 758 485 683 239 758 318 l 597 485 b 542 404 594 431 579 404 b 313 494 471 404 444 494 b 114 249 189 494 114 415 l 274 249 b 331 329 278 303 292 329 b 558 239 400 329 428 239 z "},"¬":{"ha":872,"x_min":0,"x_max":0,"o":"m 746 236 l 746 626 l 126 626 l 126 450 l 558 450 l 558 236 z "},"~":{"ha":756,"x_min":0,"x_max":0,"o":"m 500 385 b 700 631 625 385 700 464 l 539 631 b 483 550 536 576 521 550 b 254 640 413 550 386 640 b 56 394 131 640 56 561 l 215 394 b 272 475 219 447 233 475 b 500 385 342 475 369 385 z "},"^":{"ha":653,"x_min":0,"x_max":0,"o":"m 438 1007 l 217 1007 l 56 629 l 239 629 l 326 826 l 414 629 l 597 629 z "},"∅":{"ha":722,"x_min":0,"x_max":0,"o":"m 661 718 l 601 778 l 544 721 b 361 782 493 760 431 782 b 56 476 192 782 56 646 b 117 293 56 407 78 344 l 60 236 l 119 176 l 176 233 b 361 171 228 194 292 171 b 667 476 531 171 667 307 b 604 661 667 546 643 610 z m 160 478 b 361 682 160 592 250 682 b 472 649 403 682 440 669 l 190 367 b 160 478 171 400 160 438 z m 361 271 b 249 306 319 271 281 283 l 531 588 b 561 478 550 556 561 518 b 361 271 561 364 472 271 z "},"∞":{"ha":968,"x_min":0,"x_max":0,"o":"m 701 733 b 474 619 596 733 528 681 b 261 733 422 688 344 733 b 56 514 136 733 56 646 b 265 304 56 386 133 304 b 494 421 371 304 439 358 b 706 304 547 350 622 304 b 913 524 832 304 913 393 b 701 733 913 653 833 733 z m 276 436 b 196 517 228 436 196 471 b 279 601 196 571 228 601 b 397 522 326 601 363 575 b 276 436 360 474 324 436 z m 689 436 b 569 515 636 436 600 472 b 690 601 607 564 643 601 b 771 517 738 601 771 568 b 689 436 771 468 740 436 z "},"∫":{"ha":801,"x_min":0,"x_max":0,"o":"m 164 -250 b 414 -61 307 -250 390 -200 l 556 744 b 663 828 565 801 597 828 l 781 828 l 781 1007 l 603 1007 b 346 818 454 1007 371 956 l 206 13 b 99 -71 194 -44 164 -71 l -21 -71 l -21 -250 z "},"∏":{"ha":1201,"x_min":0,"x_max":0,"o":"m 38 1007 l 38 814 l 204 814 l 204 0 l 436 0 l 436 814 l 765 814 l 765 0 l 999 0 l 999 814 l 1164 814 l 1164 1007 z "},"∑":{"ha":864,"x_min":0,"x_max":0,"o":"m 579 504 l 321 829 l 783 829 l 783 1007 l 60 1007 l 60 840 l 331 506 l 53 168 l 53 0 l 788 0 l 788 178 l 314 178 z "},"√":{"ha":850,"x_min":0,"x_max":0,"o":"m 554 1007 l 333 185 l 226 492 l 13 492 l 211 0 l 476 0 l 706 829 l 864 829 l 864 1007 z "},"µ":{"ha":896,"x_min":0,"x_max":0,"o":"m 581 332 b 439 153 581 215 521 153 b 315 296 358 153 315 213 l 315 746 l 93 746 l 93 -250 l 307 -250 l 307 -14 b 376 -25 329 -22 353 -25 b 588 79 467 -25 538 10 l 588 0 l 803 0 l 803 746 l 581 746 z "},"∂":{"ha":921,"x_min":0,"x_max":0,"o":"m 482 1032 b 103 754 289 1032 164 928 l 317 754 b 468 849 351 815 403 849 b 650 597 585 849 646 758 b 433 679 597 649 524 679 b 43 290 233 679 43 529 b 400 -25 43 99 189 -25 b 864 575 707 -25 864 239 b 482 1032 864 857 729 1032 z m 418 158 b 269 313 325 158 269 222 b 447 504 269 424 344 504 b 600 353 542 504 600 444 b 418 158 600 240 526 158 z "},"%":{"ha":1303,"x_min":0,"x_max":0,"o":"m 294 465 b 551 744 451 465 551 578 b 294 1022 551 915 451 1022 b 38 744 138 1022 38 915 b 294 465 38 578 138 465 z m 401 0 l 1076 1007 l 900 1007 l 225 0 z m 294 599 b 204 744 236 599 204 650 b 294 889 204 838 236 889 b 385 744 353 889 385 836 b 294 599 385 651 353 599 z m 1008 -15 b 1265 264 1165 -15 1265 97 b 1008 542 1265 435 1165 542 b 751 264 851 542 751 435 b 1008 -15 751 97 851 -15 z m 1008 118 b 918 264 950 118 918 169 b 1008 408 918 357 950 408 b 1099 264 1068 408 1099 357 b 1008 118 1099 171 1067 118 z "},"‰":{"ha":1893,"x_min":0,"x_max":0,"o":"m 294 465 b 551 744 451 465 551 578 b 294 1022 551 915 451 1022 b 38 744 138 1022 38 915 b 294 465 38 578 138 465 z m 401 0 l 1076 1007 l 900 1007 l 225 0 z m 294 599 b 204 744 236 599 204 650 b 294 889 204 838 236 889 b 385 744 353 889 385 836 b 294 599 385 651 353 599 z m 1008 -15 b 1265 264 1165 -15 1265 97 b 1008 542 1265 435 1165 542 b 751 264 851 542 751 435 b 1008 -15 751 97 851 -15 z m 1599 -15 b 1856 264 1756 -15 1856 97 b 1599 542 1856 435 1756 542 b 1342 264 1442 542 1342 435 b 1599 -15 1342 97 1442 -15 z m 1008 118 b 918 264 950 118 918 169 b 1008 408 918 357 950 408 b 1099 264 1068 408 1099 357 b 1008 118 1099 171 1067 118 z m 1599 118 b 1508 264 1540 118 1508 169 b 1599 408 1508 357 1540 408 b 1689 264 1657 408 1689 357 b 1599 118 1689 171 1657 118 z "},"↑":{"ha":1151,"x_min":0,"x_max":0,"o":"m 576 1032 l 126 583 l 263 444 l 471 657 l 471 0 l 682 0 l 682 656 l 890 444 l 1025 583 z "},"↗":{"ha":1057,"x_min":0,"x_max":0,"o":"m 294 721 l 590 724 l 126 260 l 275 110 l 739 575 l 738 278 l 931 279 l 931 915 l 294 915 z "},"→":{"ha":1283,"x_min":0,"x_max":0,"o":"m 571 825 l 781 618 l 126 618 l 126 407 l 783 407 l 571 197 l 708 63 l 1158 513 l 708 963 z "},"↘":{"ha":1057,"x_min":0,"x_max":0,"o":"m 739 453 l 275 915 l 126 767 l 590 303 l 293 304 l 296 111 l 931 111 l 932 747 l 738 749 z "},"↓":{"ha":1151,"x_min":0,"x_max":0,"o":"m 681 350 l 681 1007 l 469 1007 l 469 351 l 261 563 l 126 424 l 575 -25 l 1025 424 l 889 563 z "},"↙":{"ha":1057,"x_min":0,"x_max":0,"o":"m 782 915 l 317 451 l 319 749 l 126 746 l 126 111 l 763 110 l 763 304 l 467 303 l 931 767 z "},"←":{"ha":1283,"x_min":0,"x_max":0,"o":"m 500 618 l 713 828 l 575 963 l 126 513 l 575 63 l 713 200 l 503 407 l 1158 407 l 1158 618 z "},"↖":{"ha":1057,"x_min":0,"x_max":0,"o":"m 467 724 l 764 722 l 763 915 l 128 914 l 126 279 l 321 278 l 318 574 l 782 110 l 932 260 z "},"↔":{"ha":1310,"x_min":0,"x_max":0,"o":"m 719 792 l 889 600 l 421 600 l 590 792 l 474 906 l 126 513 l 474 117 l 590 232 l 422 422 l 888 422 l 719 232 l 836 117 l 1183 513 l 836 906 z "},"↕":{"ha":1040,"x_min":0,"x_max":0,"o":"m 610 736 l 801 568 l 914 685 l 521 1032 l 126 685 l 240 568 l 432 738 l 432 269 l 240 439 l 126 322 l 521 -25 l 914 322 l 801 439 l 610 271 z "},"◊":{"ha":717,"x_min":0,"x_max":0,"o":"m 294 1007 l 56 504 l 293 0 l 422 0 l 661 504 l 424 1007 z m 197 501 l 356 876 l 521 506 l 361 131 z "},"@":{"ha":1426,"x_min":0,"x_max":0,"o":"m 888 678 l 881 608 b 690 699 843 660 785 699 b 363 332 497 699 363 539 b 633 25 363 153 465 25 b 875 133 749 25 819 71 b 1058 32 904 71 968 32 b 1372 461 1242 32 1372 222 b 743 1032 1372 800 1093 1032 b 54 365 376 1032 54 776 b 749 -276 54 -18 333 -276 b 1124 -204 893 -276 1011 -246 l 1124 -62 b 757 -146 1006 -114 886 -146 b 200 367 425 -146 200 58 b 747 900 200 686 443 900 b 1229 457 1019 900 1229 729 b 1079 163 1229 304 1167 163 b 1031 261 1031 163 1025 200 l 1067 678 z m 690 176 b 556 335 604 176 556 235 b 718 547 556 465 614 547 b 856 390 804 547 856 490 b 690 176 856 256 792 176 z "},"&":{"ha":1069,"x_min":0,"x_max":0,"o":"m 867 181 b 1004 511 938 267 988 379 l 783 511 b 728 326 775 442 756 379 l 554 508 b 788 793 697 588 788 658 b 463 1032 788 935 660 1032 b 135 788 264 1032 135 928 b 249 557 135 703 188 626 b 33 263 114 483 33 399 b 422 -24 33 96 194 -24 b 721 56 531 -24 633 4 l 774 0 l 1039 0 z m 464 865 b 567 781 525 865 567 831 b 435 635 567 721 515 682 b 356 778 383 693 356 736 b 464 865 356 829 397 865 z m 435 151 b 267 272 335 151 267 196 b 375 422 267 329 301 374 l 594 189 b 435 151 549 165 494 151 z "},"¶":{"ha":1019,"x_min":0,"x_max":0,"o":"m 460 1007 b 50 661 213 1007 50 871 b 415 329 50 426 250 326 l 415 -250 l 572 -250 l 572 824 l 708 824 l 708 -250 l 865 -250 l 865 824 l 982 824 l 982 1007 z "},"§":{"ha":875,"x_min":0,"x_max":0,"o":"m 829 360 b 578 624 829 553 671 599 l 432 664 b 315 768 390 675 315 697 b 428 869 315 829 360 869 b 567 754 504 869 551 825 l 761 754 b 431 1031 733 931 619 1031 b 104 744 228 1031 104 914 b 140 607 104 688 118 643 b 33 396 72 557 33 485 b 244 144 33 242 142 171 l 419 100 b 553 -10 485 83 553 64 b 428 -114 553 -83 496 -114 b 267 14 365 -114 290 -86 l 63 14 b 421 -276 94 -189 232 -276 b 761 11 633 -276 761 -165 b 725 150 761 69 747 115 b 829 360 792 200 829 269 z m 368 318 b 244 419 324 331 244 350 b 285 496 244 451 260 478 b 289 494 286 496 288 494 l 485 446 b 619 339 554 428 619 408 b 579 260 619 304 604 279 b 514 279 554 269 531 275 z "},"©":{"ha":1164,"x_min":0,"x_max":0,"o":"m 582 -25 b 1110 506 885 -25 1110 201 b 582 1032 1110 807 885 1032 b 54 506 281 1032 54 807 b 582 -25 54 201 281 -25 z m 582 78 b 164 506 344 78 164 260 b 582 928 164 746 344 928 b 1000 506 821 928 1000 746 b 582 78 1000 260 821 78 z m 590 218 b 849 406 718 218 819 292 l 693 406 b 590 349 674 371 640 349 b 465 503 510 349 465 404 b 590 657 465 599 510 657 b 696 592 642 657 676 632 l 849 592 b 590 788 821 708 718 788 b 300 503 415 788 300 667 b 590 218 300 338 415 218 z "},"®":{"ha":718,"x_min":0,"x_max":0,"o":"m 360 1026 b 56 719 188 1026 56 896 b 360 414 56 543 188 414 b 663 719 531 414 663 543 b 360 1026 663 896 531 1026 z m 360 479 b 124 721 225 479 124 582 b 360 961 124 858 226 961 b 594 721 492 961 594 858 b 360 479 594 582 492 479 z m 492 778 b 376 881 492 840 446 881 l 243 881 l 243 563 l 322 563 l 322 674 l 342 674 l 408 563 l 494 563 l 424 681 b 492 778 465 694 492 729 z m 376 815 b 413 776 397 815 413 799 b 376 736 413 753 397 736 l 322 736 l 322 815 z "},"™":{"ha":1199,"x_min":0,"x_max":0,"o":"m 175 883 l 175 504 l 325 504 l 325 883 l 469 883 l 469 1007 l 29 1007 l 29 883 z m 833 754 l 693 1007 l 553 1007 l 553 503 l 696 503 l 696 754 l 792 583 l 875 583 l 965 750 l 965 503 l 1108 503 l 1108 1007 l 968 1007 z "},"°":{"ha":594,"x_min":0,"x_max":0,"o":"m 297 536 b 539 778 444 536 539 631 b 297 1019 539 925 444 1019 b 56 778 150 1019 56 925 b 297 536 56 631 150 536 z m 297 665 b 189 778 232 665 189 710 b 297 890 189 846 232 890 b 406 778 363 890 406 846 b 297 665 406 710 363 665 z "},"|":{"ha":415,"x_min":0,"x_max":0,"o":"m 314 -250 l 314 1007 l 101 1007 l 101 -250 z "},"¦":{"ha":415,"x_min":0,"x_max":0,"o":"m 314 446 l 314 1007 l 101 1007 l 101 446 z m 314 -250 l 314 311 l 101 311 l 101 -250 z "},"†":{"ha":701,"x_min":0,"x_max":0,"o":"m 457 781 l 457 1007 l 244 1007 l 244 781 l 61 781 l 61 604 l 244 604 l 244 -250 l 457 -250 l 457 604 l 640 604 l 640 781 z "},"‡":{"ha":701,"x_min":0,"x_max":0,"o":"m 640 782 l 457 782 l 457 1007 l 244 1007 l 244 782 l 61 782 l 61 604 l 244 604 l 244 153 l 61 153 l 61 -25 l 244 -25 l 244 -250 l 457 -250 l 457 -25 l 640 -25 l 640 153 l 457 153 l 457 604 l 640 604 z "},"℮":{"ha":1228,"x_min":0,"x_max":0,"o":"m 614 0 b 1072 203 824 0 939 57 l 968 203 b 614 40 888 111 756 40 b 263 219 403 40 263 168 l 263 469 b 285 496 263 494 271 496 l 1172 496 b 614 1021 1158 835 944 1021 b 56 510 288 1021 56 815 b 614 0 56 199 288 0 z m 285 528 b 263 540 268 528 263 532 l 263 807 b 613 985 263 851 413 985 b 965 796 771 985 965 876 l 965 551 b 940 528 965 533 961 528 z "},"№":{"ha":1688,"x_min":0,"x_max":0,"o":"m 1369 1026 b 1082 744 1200 1026 1082 907 b 1369 461 1082 582 1200 461 b 1657 744 1539 461 1657 582 b 1369 1026 1657 907 1540 1026 z m 297 1007 l 101 1007 l 101 0 l 314 0 l 314 633 l 753 0 l 949 0 l 949 1007 l 735 1007 l 735 378 z m 1369 592 b 1249 744 1293 592 1249 650 b 1369 896 1249 839 1293 896 b 1490 744 1447 896 1490 840 b 1369 592 1490 649 1447 592 z "},"ʼ":{"ha":308,"x_min":0,"x_max":0,"o":"m 232 642 l 254 1007 l 54 1007 l 76 642 z "},"̈":{"ha":0,"x_min":0,"x_max":0,"o":"m -540 857 b -422 971 -476 857 -422 907 b -540 1086 -422 1036 -474 1086 b -658 971 -607 1086 -658 1036 b -540 857 -658 907 -607 857 z m -172 857 b -56 971 -110 857 -56 907 b -172 1086 -56 1036 -107 1086 b -292 971 -240 1086 -292 1036 b -172 857 -292 907 -240 857 z "},"̇":{"ha":0,"x_min":0,"x_max":0,"o":"m -187 858 b -56 985 -117 858 -56 913 b -187 1113 -56 1058 -114 1113 b -319 985 -262 1113 -319 1058 b -187 858 -319 913 -262 858 z "},"̀":{"ha":0,"x_min":0,"x_max":0,"o":"m -56 861 l -185 1094 l -449 1094 l -233 861 z "},"́":{"ha":0,"x_min":0,"x_max":0,"o":"m -274 861 l -56 1094 l -319 1094 l -453 861 z "},"̋":{"ha":0,"x_min":0,"x_max":0,"o":"m -479 861 l -357 1094 l -565 1094 l -635 861 z m -201 861 l -56 1094 l -262 1094 l -357 861 z "},"̂":{"ha":0,"x_min":0,"x_max":0,"o":"m -249 1094 l -446 1094 l -640 861 l -440 861 l -347 963 l -256 861 l -56 861 z "},"̌":{"ha":0,"x_min":0,"x_max":0,"o":"m -347 992 l -440 1094 l -640 1094 l -446 861 l -249 861 l -56 1094 l -256 1094 z "},"̆":{"ha":0,"x_min":0,"x_max":0,"o":"m -324 856 b -56 1088 -153 856 -57 936 l -233 1088 b -321 996 -236 1022 -267 996 b -411 1088 -375 996 -408 1022 l -586 1088 b -324 856 -585 936 -475 856 z "},"̊":{"ha":0,"x_min":0,"x_max":0,"o":"m -235 853 b -56 1026 -129 853 -56 925 b -235 1199 -56 1126 -129 1199 b -415 1026 -340 1199 -415 1126 b -235 853 -415 925 -340 853 z m -235 958 b -303 1026 -274 958 -303 986 b -235 1093 -303 1065 -274 1093 b -168 1026 -194 1093 -168 1065 b -235 958 -168 986 -194 958 z "},"̃":{"ha":0,"x_min":0,"x_max":0,"o":"m -246 858 b -56 1086 -125 858 -56 932 l -221 1086 b -278 1011 -224 1036 -237 1011 b -479 1096 -342 1011 -354 1096 b -669 868 -600 1096 -669 1022 l -506 868 b -447 943 -501 918 -489 943 b -246 858 -383 943 -371 858 z "},"̄":{"ha":0,"x_min":0,"x_max":0,"o":"m -56 868 l -56 1024 l -579 1024 l -579 868 z "},"̒":{"ha":0,"x_min":0,"x_max":0,"o":"m -92 861 l -56 1094 l -212 1094 l -296 861 z "},"̣":{"ha":0,"x_min":0,"x_max":0,"o":"m -187 -350 b -56 -224 -117 -350 -56 -296 b -187 -96 -56 -150 -114 -96 b -319 -224 -262 -96 -319 -150 b -187 -350 -319 -296 -262 -350 z "},"̦":{"ha":0,"x_min":0,"x_max":0,"o":"m -139 -308 l -56 -83 l -261 -83 l -297 -308 z "},"̧":{"ha":0,"x_min":0,"x_max":0,"o":"m -125 0 l -208 57 l -301 -78 l -274 -132 l -251 -132 b -208 -161 -219 -132 -208 -142 b -261 -187 -208 -181 -228 -187 b -322 -185 -283 -187 -296 -187 l -322 -282 b -237 -289 -293 -287 -265 -289 b -56 -171 -107 -289 -56 -246 b -176 -68 -56 -111 -106 -74 z "},"̨":{"ha":0,"x_min":0,"x_max":0,"o":"m -150 -292 b -56 -282 -119 -292 -86 -290 l -56 -165 l -74 -165 b -140 -121 -115 -165 -140 -151 b -56 0 -140 -74 -108 -29 l -161 44 b -315 -162 -260 -12 -315 -82 b -150 -292 -315 -237 -261 -292 z "},"¨":{"ha":714,"x_min":0,"x_max":0,"o":"m 174 857 b 292 971 238 857 292 907 b 174 1086 292 1036 240 1086 b 56 971 107 1086 56 1036 b 174 857 56 907 107 857 z m 542 857 b 658 971 604 857 658 907 b 542 1086 658 1036 607 1086 b 422 971 474 1086 422 1036 b 542 857 422 907 474 857 z "},"˙":{"ha":375,"x_min":0,"x_max":0,"o":"m 188 858 b 319 985 258 858 319 913 b 188 1113 319 1058 261 1113 b 56 985 113 1113 56 1058 b 188 858 56 913 113 858 z "},"`":{"ha":504,"x_min":0,"x_max":0,"o":"m 449 861 l 319 1094 l 56 1094 l 271 861 z "},"´":{"ha":508,"x_min":0,"x_max":0,"o":"m 235 861 l 453 1094 l 189 1094 l 56 861 z "},"˝":{"ha":690,"x_min":0,"x_max":0,"o":"m 211 861 l 333 1094 l 125 1094 l 56 861 z m 489 861 l 635 1094 l 428 1094 l 333 861 z "},"ˆ":{"ha":696,"x_min":0,"x_max":0,"o":"m 447 1094 l 250 1094 l 56 861 l 256 861 l 349 963 l 440 861 l 640 861 z "},"ˇ":{"ha":696,"x_min":0,"x_max":0,"o":"m 349 992 l 256 1094 l 56 1094 l 250 861 l 447 861 l 640 1094 l 440 1094 z "},"˘":{"ha":642,"x_min":0,"x_max":0,"o":"m 318 856 b 586 1088 489 856 585 936 l 408 1088 b 321 996 406 1022 375 996 b 231 1088 267 996 233 1022 l 56 1088 b 318 856 57 936 167 856 z "},"˚":{"ha":471,"x_min":0,"x_max":0,"o":"m 236 853 b 415 1026 342 853 415 925 b 236 1199 415 1126 342 1199 b 56 1026 131 1199 56 1126 b 236 853 56 925 131 853 z m 236 958 b 168 1026 197 958 168 986 b 236 1093 168 1065 197 1093 b 303 1026 276 1093 303 1065 b 236 958 303 986 276 958 z "},"˜":{"ha":725,"x_min":0,"x_max":0,"o":"m 479 858 b 669 1086 600 858 669 932 l 504 1086 b 447 1011 501 1036 488 1011 b 246 1096 383 1011 371 1096 b 56 868 125 1096 56 1022 l 219 868 b 278 943 224 918 236 943 b 479 858 342 943 354 858 z "},"¯":{"ha":635,"x_min":0,"x_max":0,"o":"m 579 868 l 579 1024 l 56 1024 l 56 868 z "},"¸":{"ha":378,"x_min":0,"x_max":0,"o":"m 253 0 l 169 57 l 76 -78 l 104 -132 l 126 -132 b 169 -161 158 -132 169 -142 b 117 -187 169 -181 150 -187 b 56 -185 94 -187 82 -187 l 56 -282 b 140 -289 85 -287 113 -289 b 322 -171 271 -289 322 -246 b 201 -68 322 -111 272 -74 z "},"˛":{"ha":371,"x_min":0,"x_max":0,"o":"m 221 -292 b 315 -282 251 -292 285 -290 l 315 -165 l 297 -165 b 231 -121 256 -165 231 -151 b 315 0 231 -74 263 -29 l 210 44 b 56 -162 111 -12 56 -82 b 221 -292 56 -237 110 -292 z "}}}
